<mxfile host="app.diagrams.net" modified="2021-11-14T15:54:35.933Z" agent="5.0 (Windows NT 10.0; Win64; x64) AppleWebKit/537.36 (KHTML, like Gecko) Chrome/95.0.4638.69 Safari/537.36" etag="pVHzyL1RnajFwdS7JiKl" version="15.7.3" type="github">
  <diagram id="wk4fuX5EP77BR2uGaR5X" name="Page-1">
    <mxGraphModel dx="707" dy="436" grid="1" gridSize="10" guides="1" tooltips="1" connect="1" arrows="1" fold="1" page="1" pageScale="1" pageWidth="827" pageHeight="1169" math="0" shadow="0">
      <root>
        <mxCell id="0" />
        <mxCell id="1" parent="0" />
        <mxCell id="Hvgk8vvtis6JtDLWObex-209" value="&lt;div&gt;&lt;span style=&quot;white-space: pre&quot;&gt;	&lt;/span&gt;&lt;span&gt;&amp;nbsp; &amp;nbsp; &amp;nbsp; &amp;nbsp; &amp;nbsp;1&lt;/span&gt;&lt;span style=&quot;white-space: pre&quot;&gt;	&lt;/span&gt;&lt;span&gt;&amp;nbsp; 0&lt;/span&gt;&lt;span style=&quot;white-space: pre&quot;&gt;	&lt;span style=&quot;white-space: pre&quot;&gt;		 &lt;/span&gt; &lt;/span&gt;&lt;span&gt;&amp;nbsp;&lt;/span&gt;&lt;span&gt;0&lt;/span&gt;&lt;span style=&quot;white-space: pre&quot;&gt;	&lt;/span&gt;&amp;nbsp; &amp;nbsp; &amp;nbsp; &amp;nbsp;&amp;nbsp;&lt;span&gt;1&lt;/span&gt;&lt;span style=&quot;white-space: pre&quot;&gt;	&lt;span style=&quot;white-space: pre&quot;&gt;	&lt;/span&gt;&lt;span style=&quot;white-space: pre&quot;&gt;	&lt;/span&gt; &lt;/span&gt;&amp;nbsp; &amp;nbsp;&amp;nbsp;&lt;span&gt;1&lt;/span&gt;&lt;span style=&quot;white-space: pre&quot;&gt;	&lt;/span&gt;&amp;nbsp; &amp;nbsp; &amp;nbsp; &amp;nbsp; &amp;nbsp; &amp;nbsp;&lt;span&gt;0&amp;nbsp; &amp;nbsp; &amp;nbsp; &amp;nbsp; &amp;nbsp; &amp;nbsp; &amp;nbsp; &amp;nbsp; &amp;nbsp; &amp;nbsp; &amp;nbsp;&amp;nbsp;&lt;/span&gt;&lt;span style=&quot;white-space: pre&quot;&gt;	&lt;span style=&quot;white-space: pre&quot;&gt;	&lt;/span&gt;&lt;/span&gt;&lt;span&gt;1&lt;/span&gt;&lt;span style=&quot;white-space: pre&quot;&gt;	&lt;span style=&quot;white-space: pre&quot;&gt;	&lt;/span&gt;&lt;/span&gt;&lt;span&gt;0&lt;/span&gt;&lt;span style=&quot;white-space: pre&quot;&gt;	&lt;span style=&quot;white-space: pre&quot;&gt;	&lt;/span&gt; &lt;/span&gt;&amp;nbsp; &amp;nbsp; &amp;nbsp; &amp;nbsp; &amp;nbsp; &amp;nbsp; &amp;nbsp;&lt;span&gt;0&lt;/span&gt;&lt;span style=&quot;white-space: pre&quot;&gt;	&lt;/span&gt;&amp;nbsp;&amp;nbsp;&lt;span&gt;1&lt;/span&gt;&lt;span style=&quot;white-space: pre&quot;&gt;	&lt;/span&gt;&amp;nbsp; &amp;nbsp; &amp;nbsp; &amp;nbsp; &amp;nbsp; &amp;nbsp; &amp;nbsp; &amp;nbsp; &amp;nbsp; &amp;nbsp; &amp;nbsp; &amp;nbsp; &amp;nbsp; &amp;nbsp;&lt;span&gt;1&lt;/span&gt;&lt;span style=&quot;white-space: pre&quot;&gt;	&lt;/span&gt;&amp;nbsp; &amp;nbsp; &amp;nbsp; &amp;nbsp; &amp;nbsp;&amp;nbsp;&lt;span&gt;0&lt;/span&gt;&lt;span style=&quot;white-space: pre&quot;&gt;	&lt;/span&gt;&amp;nbsp; &amp;nbsp; &amp;nbsp; &amp;nbsp; &amp;nbsp; &amp;nbsp; &amp;nbsp; &amp;nbsp; &amp;nbsp; &amp;nbsp; &amp;nbsp; &amp;nbsp; &amp;nbsp;&lt;span&gt;1&lt;/span&gt;&lt;span style=&quot;white-space: pre&quot;&gt;	&lt;/span&gt;&amp;nbsp; &amp;nbsp; &amp;nbsp; &amp;nbsp;&lt;span&gt;0&lt;/span&gt;&lt;span style=&quot;white-space: pre&quot;&gt;	&lt;/span&gt;&amp;nbsp; &amp;nbsp; &amp;nbsp; &amp;nbsp; &amp;nbsp; &amp;nbsp; &amp;nbsp; &amp;nbsp; &amp;nbsp; &amp;nbsp; &amp;nbsp;&amp;nbsp;&lt;span&gt;1&lt;/span&gt;&lt;span style=&quot;white-space: pre&quot;&gt;	&lt;/span&gt;&amp;nbsp; &amp;nbsp; &amp;nbsp; &amp;nbsp;&lt;span&gt;0&lt;/span&gt;&lt;/div&gt;" style="text;html=1;resizable=0;autosize=1;align=left;verticalAlign=middle;points=[];fillColor=none;strokeColor=none;rounded=0;" vertex="1" parent="1">
          <mxGeometry x="65" y="60" width="1170" height="20" as="geometry" />
        </mxCell>
        <mxCell id="Hvgk8vvtis6JtDLWObex-211" value="00&lt;br&gt;&lt;br&gt;&lt;br&gt;&lt;br&gt;01&lt;br&gt;&lt;br&gt;&lt;br&gt;&lt;br&gt;10&lt;br&gt;&lt;br&gt;&lt;br&gt;&lt;br&gt;11" style="text;html=1;resizable=0;autosize=1;align=center;verticalAlign=middle;points=[];fillColor=none;strokeColor=none;rounded=0;" vertex="1" parent="1">
          <mxGeometry x="30" y="120" width="30" height="190" as="geometry" />
        </mxCell>
        <mxCell id="Hvgk8vvtis6JtDLWObex-212" value="0" style="text;html=1;resizable=0;autosize=1;align=center;verticalAlign=middle;points=[];fillColor=none;strokeColor=none;rounded=0;" vertex="1" parent="1">
          <mxGeometry x="95" y="120" width="20" height="20" as="geometry" />
        </mxCell>
        <mxCell id="Hvgk8vvtis6JtDLWObex-213" value="&amp;nbsp; 1" style="text;html=1;resizable=0;autosize=1;align=center;verticalAlign=middle;points=[];fillColor=none;strokeColor=none;rounded=0;" vertex="1" parent="1">
          <mxGeometry x="125" y="120" width="30" height="20" as="geometry" />
        </mxCell>
        <mxCell id="Hvgk8vvtis6JtDLWObex-214" value="&amp;nbsp; 0" style="text;html=1;resizable=0;autosize=1;align=center;verticalAlign=middle;points=[];fillColor=none;strokeColor=none;rounded=0;" vertex="1" parent="1">
          <mxGeometry x="125" y="290" width="30" height="20" as="geometry" />
        </mxCell>
        <mxCell id="Hvgk8vvtis6JtDLWObex-215" value="" style="endArrow=none;dashed=1;html=1;rounded=0;exitX=1.15;exitY=0.6;exitDx=0;exitDy=0;exitPerimeter=0;" edge="1" parent="1" source="Hvgk8vvtis6JtDLWObex-212">
          <mxGeometry width="50" height="50" relative="1" as="geometry">
            <mxPoint x="240" y="260" as="sourcePoint" />
            <mxPoint x="140" y="132" as="targetPoint" />
          </mxGeometry>
        </mxCell>
        <mxCell id="Hvgk8vvtis6JtDLWObex-216" value="" style="endArrow=none;html=1;rounded=0;exitX=0.65;exitY=1.2;exitDx=0;exitDy=0;exitPerimeter=0;entryX=0.5;entryY=-0.067;entryDx=0;entryDy=0;entryPerimeter=0;" edge="1" parent="1" source="Hvgk8vvtis6JtDLWObex-212" target="Hvgk8vvtis6JtDLWObex-214">
          <mxGeometry width="50" height="50" relative="1" as="geometry">
            <mxPoint x="240" y="260" as="sourcePoint" />
            <mxPoint x="290" y="210" as="targetPoint" />
          </mxGeometry>
        </mxCell>
        <mxCell id="Hvgk8vvtis6JtDLWObex-217" value="1" style="text;html=1;resizable=0;autosize=1;align=center;verticalAlign=middle;points=[];fillColor=none;strokeColor=none;rounded=0;" vertex="1" parent="1">
          <mxGeometry x="160" y="120" width="20" height="20" as="geometry" />
        </mxCell>
        <mxCell id="Hvgk8vvtis6JtDLWObex-218" value="1" style="text;html=1;resizable=0;autosize=1;align=center;verticalAlign=middle;points=[];fillColor=none;strokeColor=none;rounded=0;" vertex="1" parent="1">
          <mxGeometry x="160" y="180" width="20" height="20" as="geometry" />
        </mxCell>
        <mxCell id="Hvgk8vvtis6JtDLWObex-219" value="2" style="text;html=1;resizable=0;autosize=1;align=center;verticalAlign=middle;points=[];fillColor=none;strokeColor=none;rounded=0;" vertex="1" parent="1">
          <mxGeometry x="160" y="230" width="20" height="20" as="geometry" />
        </mxCell>
        <mxCell id="Hvgk8vvtis6JtDLWObex-220" value="0" style="text;html=1;resizable=0;autosize=1;align=center;verticalAlign=middle;points=[];fillColor=none;strokeColor=none;rounded=0;" vertex="1" parent="1">
          <mxGeometry x="160" y="290" width="20" height="20" as="geometry" />
        </mxCell>
        <mxCell id="Hvgk8vvtis6JtDLWObex-221" value="" style="endArrow=none;dashed=1;html=1;rounded=0;entryX=0.267;entryY=0.6;entryDx=0;entryDy=0;entryPerimeter=0;" edge="1" parent="1" target="Hvgk8vvtis6JtDLWObex-217">
          <mxGeometry width="50" height="50" relative="1" as="geometry">
            <mxPoint x="150" y="132" as="sourcePoint" />
            <mxPoint x="290" y="210" as="targetPoint" />
          </mxGeometry>
        </mxCell>
        <mxCell id="Hvgk8vvtis6JtDLWObex-222" value="" style="endArrow=none;dashed=1;html=1;rounded=0;exitX=0.7;exitY=1.1;exitDx=0;exitDy=0;exitPerimeter=0;entryX=0.267;entryY=0.4;entryDx=0;entryDy=0;entryPerimeter=0;" edge="1" parent="1" source="Hvgk8vvtis6JtDLWObex-213" target="Hvgk8vvtis6JtDLWObex-219">
          <mxGeometry width="50" height="50" relative="1" as="geometry">
            <mxPoint x="240" y="260" as="sourcePoint" />
            <mxPoint x="290" y="210" as="targetPoint" />
          </mxGeometry>
        </mxCell>
        <mxCell id="Hvgk8vvtis6JtDLWObex-223" value="" style="endArrow=none;html=1;rounded=0;exitX=0.767;exitY=-0.1;exitDx=0;exitDy=0;exitPerimeter=0;entryX=0.167;entryY=0.833;entryDx=0;entryDy=0;entryPerimeter=0;" edge="1" parent="1" source="Hvgk8vvtis6JtDLWObex-214" target="Hvgk8vvtis6JtDLWObex-218">
          <mxGeometry width="50" height="50" relative="1" as="geometry">
            <mxPoint x="240" y="260" as="sourcePoint" />
            <mxPoint x="290" y="210" as="targetPoint" />
          </mxGeometry>
        </mxCell>
        <mxCell id="Hvgk8vvtis6JtDLWObex-224" value="" style="endArrow=none;html=1;rounded=0;" edge="1" parent="1">
          <mxGeometry width="50" height="50" relative="1" as="geometry">
            <mxPoint x="150" y="302" as="sourcePoint" />
            <mxPoint x="170" y="302" as="targetPoint" />
          </mxGeometry>
        </mxCell>
        <mxCell id="Hvgk8vvtis6JtDLWObex-225" value="1" style="text;html=1;resizable=0;autosize=1;align=center;verticalAlign=middle;points=[];fillColor=none;strokeColor=none;rounded=0;" vertex="1" parent="1">
          <mxGeometry x="200" y="120" width="20" height="20" as="geometry" />
        </mxCell>
        <mxCell id="Hvgk8vvtis6JtDLWObex-226" value="0" style="text;html=1;resizable=0;autosize=1;align=center;verticalAlign=middle;points=[];fillColor=none;strokeColor=none;rounded=0;" vertex="1" parent="1">
          <mxGeometry x="200" y="180" width="20" height="20" as="geometry" />
        </mxCell>
        <mxCell id="Hvgk8vvtis6JtDLWObex-227" value="" style="endArrow=none;html=1;rounded=0;exitX=-0.1;exitY=0.533;exitDx=0;exitDy=0;exitPerimeter=0;entryX=1.033;entryY=0.067;entryDx=0;entryDy=0;entryPerimeter=0;" edge="1" parent="1" source="Hvgk8vvtis6JtDLWObex-225" target="Hvgk8vvtis6JtDLWObex-218">
          <mxGeometry width="50" height="50" relative="1" as="geometry">
            <mxPoint x="240" y="260" as="sourcePoint" />
            <mxPoint x="190" y="132" as="targetPoint" />
          </mxGeometry>
        </mxCell>
        <mxCell id="Hvgk8vvtis6JtDLWObex-228" value="&lt;div&gt;&lt;span&gt;P0&lt;/span&gt;&lt;span style=&quot;white-space: pre&quot;&gt;	&lt;/span&gt;&lt;span&gt;&amp;nbsp; &amp;nbsp; &amp;nbsp;1&lt;/span&gt;&lt;span style=&quot;white-space: pre&quot;&gt;	&lt;/span&gt;&lt;span&gt;&amp;nbsp; &amp;nbsp; &amp;nbsp;2&lt;/span&gt;&lt;span style=&quot;white-space: pre&quot;&gt;	&lt;/span&gt;&lt;span&gt;&amp;nbsp; &amp;nbsp; &amp;nbsp; &amp;nbsp; &amp;nbsp;P1&lt;span style=&quot;white-space: pre&quot;&gt;	&lt;/span&gt;&lt;span style=&quot;white-space: pre&quot;&gt;	&lt;/span&gt;3&lt;span style=&quot;white-space: pre&quot;&gt;	&lt;span style=&quot;white-space: pre&quot;&gt;	&lt;/span&gt;4&lt;/span&gt;&amp;nbsp; &amp;nbsp; &amp;nbsp; &amp;nbsp; P2&amp;nbsp; &amp;nbsp; &amp;nbsp; &amp;nbsp; &amp;nbsp; &amp;nbsp; &amp;nbsp;5&amp;nbsp; &amp;nbsp; &amp;nbsp; &amp;nbsp; &amp;nbsp; &amp;nbsp; &amp;nbsp; 6&amp;nbsp;&lt;span style=&quot;white-space: pre&quot;&gt;	&lt;/span&gt;&lt;span style=&quot;white-space: pre&quot;&gt;	&amp;nbsp;&lt;/span&gt;&amp;nbsp; P3&amp;nbsp; &amp;nbsp; &amp;nbsp; &amp;nbsp; &amp;nbsp; &amp;nbsp; &amp;nbsp; &amp;nbsp;7&amp;nbsp; &amp;nbsp; &amp;nbsp; &amp;nbsp; &amp;nbsp; &amp;nbsp; &amp;nbsp; 8&amp;nbsp; &amp;nbsp; &amp;nbsp; &amp;nbsp; &amp;nbsp; &amp;nbsp; &amp;nbsp;P4&amp;nbsp; &amp;nbsp; &amp;nbsp; &amp;nbsp; &amp;nbsp; 9&amp;nbsp; &amp;nbsp; &amp;nbsp; &amp;nbsp; &amp;nbsp; 10&amp;nbsp; &amp;nbsp; &amp;nbsp; &amp;nbsp; &amp;nbsp; &amp;nbsp; &amp;nbsp; P5&amp;nbsp; &amp;nbsp; &amp;nbsp; &amp;nbsp; &amp;nbsp; 11&amp;nbsp; &amp;nbsp; &amp;nbsp; &amp;nbsp; &amp;nbsp; &amp;nbsp;12&amp;nbsp; &amp;nbsp; &amp;nbsp; &amp;nbsp; &amp;nbsp; &amp;nbsp; P6&amp;nbsp; &amp;nbsp; &amp;nbsp; &amp;nbsp; &amp;nbsp; &amp;nbsp;13&amp;nbsp; &amp;nbsp; &amp;nbsp; &amp;nbsp; &amp;nbsp;14&amp;nbsp; &amp;nbsp; &amp;nbsp; &amp;nbsp; &amp;nbsp; &amp;nbsp; &amp;nbsp;P7&amp;nbsp; &amp;nbsp; &amp;nbsp; &amp;nbsp; &amp;nbsp; &amp;nbsp; &amp;nbsp;15&amp;nbsp; &amp;nbsp; &amp;nbsp; &amp;nbsp; &amp;nbsp; &amp;nbsp; 16&amp;nbsp; &amp;nbsp; &amp;nbsp; &amp;nbsp; &amp;nbsp;P8&lt;/span&gt;&lt;/div&gt;" style="text;html=1;resizable=0;autosize=1;align=left;verticalAlign=middle;points=[];fillColor=none;strokeColor=none;rounded=0;" vertex="1" parent="1">
          <mxGeometry x="95" y="85" width="1210" height="20" as="geometry" />
        </mxCell>
        <mxCell id="Hvgk8vvtis6JtDLWObex-229" value="" style="endArrow=none;html=1;rounded=0;exitX=0.967;exitY=0.2;exitDx=0;exitDy=0;exitPerimeter=0;entryX=0.333;entryY=0.8;entryDx=0;entryDy=0;entryPerimeter=0;" edge="1" parent="1" source="Hvgk8vvtis6JtDLWObex-220" target="Hvgk8vvtis6JtDLWObex-226">
          <mxGeometry width="50" height="50" relative="1" as="geometry">
            <mxPoint x="230" y="260" as="sourcePoint" />
            <mxPoint x="280" y="210" as="targetPoint" />
          </mxGeometry>
        </mxCell>
        <mxCell id="Hvgk8vvtis6JtDLWObex-230" value="1" style="text;html=1;resizable=0;autosize=1;align=center;verticalAlign=middle;points=[];fillColor=none;strokeColor=none;rounded=0;" vertex="1" parent="1">
          <mxGeometry x="250" y="120" width="20" height="20" as="geometry" />
        </mxCell>
        <mxCell id="Hvgk8vvtis6JtDLWObex-231" value="0" style="text;html=1;resizable=0;autosize=1;align=center;verticalAlign=middle;points=[];fillColor=none;strokeColor=none;rounded=0;" vertex="1" parent="1">
          <mxGeometry x="250" y="180" width="20" height="20" as="geometry" />
        </mxCell>
        <mxCell id="Hvgk8vvtis6JtDLWObex-232" value="1" style="text;html=1;resizable=0;autosize=1;align=center;verticalAlign=middle;points=[];fillColor=none;strokeColor=none;rounded=0;" vertex="1" parent="1">
          <mxGeometry x="250" y="230" width="20" height="20" as="geometry" />
        </mxCell>
        <mxCell id="Hvgk8vvtis6JtDLWObex-233" value="2" style="text;html=1;resizable=0;autosize=1;align=center;verticalAlign=middle;points=[];fillColor=none;strokeColor=none;rounded=0;" vertex="1" parent="1">
          <mxGeometry x="250" y="290" width="20" height="20" as="geometry" />
        </mxCell>
        <mxCell id="Hvgk8vvtis6JtDLWObex-234" value="" style="endArrow=none;html=1;rounded=0;exitX=1.1;exitY=0.567;exitDx=0;exitDy=0;exitPerimeter=0;entryX=-0.033;entryY=0.6;entryDx=0;entryDy=0;entryPerimeter=0;" edge="1" parent="1" source="Hvgk8vvtis6JtDLWObex-225" target="Hvgk8vvtis6JtDLWObex-230">
          <mxGeometry width="50" height="50" relative="1" as="geometry">
            <mxPoint x="230" y="260" as="sourcePoint" />
            <mxPoint x="280" y="210" as="targetPoint" />
          </mxGeometry>
        </mxCell>
        <mxCell id="Hvgk8vvtis6JtDLWObex-236" value="" style="endArrow=none;html=1;rounded=0;exitX=0.833;exitY=0.767;exitDx=0;exitDy=0;exitPerimeter=0;entryX=0.2;entryY=0.467;entryDx=0;entryDy=0;entryPerimeter=0;" edge="1" parent="1" source="Hvgk8vvtis6JtDLWObex-225" target="Hvgk8vvtis6JtDLWObex-233">
          <mxGeometry width="50" height="50" relative="1" as="geometry">
            <mxPoint x="230" y="260" as="sourcePoint" />
            <mxPoint x="280" y="210" as="targetPoint" />
          </mxGeometry>
        </mxCell>
        <mxCell id="Hvgk8vvtis6JtDLWObex-237" value="" style="endArrow=none;html=1;rounded=0;exitX=0.867;exitY=0.5;exitDx=0;exitDy=0;exitPerimeter=0;" edge="1" parent="1" source="Hvgk8vvtis6JtDLWObex-226">
          <mxGeometry width="50" height="50" relative="1" as="geometry">
            <mxPoint x="230" y="260" as="sourcePoint" />
            <mxPoint x="250" y="190" as="targetPoint" />
          </mxGeometry>
        </mxCell>
        <mxCell id="Hvgk8vvtis6JtDLWObex-238" value="" style="endArrow=none;html=1;rounded=0;exitX=0.967;exitY=0.867;exitDx=0;exitDy=0;exitPerimeter=0;entryX=-0.033;entryY=0.033;entryDx=0;entryDy=0;entryPerimeter=0;" edge="1" parent="1" source="Hvgk8vvtis6JtDLWObex-226" target="Hvgk8vvtis6JtDLWObex-232">
          <mxGeometry width="50" height="50" relative="1" as="geometry">
            <mxPoint x="230" y="260" as="sourcePoint" />
            <mxPoint x="280" y="210" as="targetPoint" />
          </mxGeometry>
        </mxCell>
        <mxCell id="Hvgk8vvtis6JtDLWObex-239" value="1" style="text;html=1;resizable=0;autosize=1;align=center;verticalAlign=middle;points=[];fillColor=none;strokeColor=none;rounded=0;" vertex="1" parent="1">
          <mxGeometry x="300" y="120" width="20" height="20" as="geometry" />
        </mxCell>
        <mxCell id="Hvgk8vvtis6JtDLWObex-240" value="1" style="text;html=1;resizable=0;autosize=1;align=center;verticalAlign=middle;points=[];fillColor=none;strokeColor=none;rounded=0;" vertex="1" parent="1">
          <mxGeometry x="300" y="180" width="20" height="20" as="geometry" />
        </mxCell>
        <mxCell id="Hvgk8vvtis6JtDLWObex-241" value="1" style="text;html=1;resizable=0;autosize=1;align=center;verticalAlign=middle;points=[];fillColor=none;strokeColor=none;rounded=0;" vertex="1" parent="1">
          <mxGeometry x="300" y="230" width="20" height="20" as="geometry" />
        </mxCell>
        <mxCell id="Hvgk8vvtis6JtDLWObex-242" value="0" style="text;html=1;resizable=0;autosize=1;align=center;verticalAlign=middle;points=[];fillColor=none;strokeColor=none;rounded=0;" vertex="1" parent="1">
          <mxGeometry x="300" y="290" width="20" height="20" as="geometry" />
        </mxCell>
        <mxCell id="Hvgk8vvtis6JtDLWObex-243" value="" style="endArrow=none;html=1;rounded=0;entryX=0.033;entryY=0.633;entryDx=0;entryDy=0;entryPerimeter=0;exitX=1.233;exitY=0.6;exitDx=0;exitDy=0;exitPerimeter=0;dashed=1;" edge="1" parent="1" source="Hvgk8vvtis6JtDLWObex-230" target="Hvgk8vvtis6JtDLWObex-239">
          <mxGeometry width="50" height="50" relative="1" as="geometry">
            <mxPoint x="230" y="260" as="sourcePoint" />
            <mxPoint x="280" y="210" as="targetPoint" />
          </mxGeometry>
        </mxCell>
        <mxCell id="Hvgk8vvtis6JtDLWObex-244" value="" style="endArrow=none;html=1;rounded=0;entryX=1.033;entryY=0.933;entryDx=0;entryDy=0;entryPerimeter=0;exitX=0.2;exitY=0.567;exitDx=0;exitDy=0;exitPerimeter=0;" edge="1" parent="1" source="Hvgk8vvtis6JtDLWObex-241" target="Hvgk8vvtis6JtDLWObex-230">
          <mxGeometry width="50" height="50" relative="1" as="geometry">
            <mxPoint x="230" y="260" as="sourcePoint" />
            <mxPoint x="280" y="210" as="targetPoint" />
          </mxGeometry>
        </mxCell>
        <mxCell id="Hvgk8vvtis6JtDLWObex-245" value="" style="endArrow=none;html=1;rounded=0;exitX=0.967;exitY=0.667;exitDx=0;exitDy=0;exitPerimeter=0;entryX=0.1;entryY=0.667;entryDx=0;entryDy=0;entryPerimeter=0;dashed=1;" edge="1" parent="1" source="Hvgk8vvtis6JtDLWObex-231" target="Hvgk8vvtis6JtDLWObex-240">
          <mxGeometry width="50" height="50" relative="1" as="geometry">
            <mxPoint x="230" y="260" as="sourcePoint" />
            <mxPoint x="280" y="210" as="targetPoint" />
          </mxGeometry>
        </mxCell>
        <mxCell id="Hvgk8vvtis6JtDLWObex-246" value="" style="endArrow=none;html=1;rounded=0;entryX=0.967;entryY=0.867;entryDx=0;entryDy=0;entryPerimeter=0;exitX=0;exitY=0.2;exitDx=0;exitDy=0;exitPerimeter=0;dashed=1;" edge="1" parent="1" source="Hvgk8vvtis6JtDLWObex-242" target="Hvgk8vvtis6JtDLWObex-231">
          <mxGeometry width="50" height="50" relative="1" as="geometry">
            <mxPoint x="230" y="260" as="sourcePoint" />
            <mxPoint x="280" y="210" as="targetPoint" />
          </mxGeometry>
        </mxCell>
        <mxCell id="Hvgk8vvtis6JtDLWObex-247" value="" style="endArrow=none;dashed=1;html=1;rounded=0;exitX=0.933;exitY=0.567;exitDx=0;exitDy=0;exitPerimeter=0;entryX=0.233;entryY=0.7;entryDx=0;entryDy=0;entryPerimeter=0;" edge="1" parent="1" source="Hvgk8vvtis6JtDLWObex-232" target="Hvgk8vvtis6JtDLWObex-241">
          <mxGeometry width="50" height="50" relative="1" as="geometry">
            <mxPoint x="230" y="260" as="sourcePoint" />
            <mxPoint x="280" y="210" as="targetPoint" />
          </mxGeometry>
        </mxCell>
        <mxCell id="Hvgk8vvtis6JtDLWObex-248" value="" style="endArrow=none;html=1;rounded=0;entryX=0.333;entryY=0.933;entryDx=0;entryDy=0;entryPerimeter=0;" edge="1" parent="1" target="Hvgk8vvtis6JtDLWObex-239">
          <mxGeometry width="50" height="50" relative="1" as="geometry">
            <mxPoint x="260" y="240" as="sourcePoint" />
            <mxPoint x="280" y="210" as="targetPoint" />
          </mxGeometry>
        </mxCell>
        <mxCell id="Hvgk8vvtis6JtDLWObex-249" value="" style="endArrow=none;dashed=1;html=1;rounded=0;exitX=1.067;exitY=0.633;exitDx=0;exitDy=0;exitPerimeter=0;" edge="1" parent="1" source="Hvgk8vvtis6JtDLWObex-233">
          <mxGeometry width="50" height="50" relative="1" as="geometry">
            <mxPoint x="230" y="260" as="sourcePoint" />
            <mxPoint x="300" y="303" as="targetPoint" />
          </mxGeometry>
        </mxCell>
        <mxCell id="Hvgk8vvtis6JtDLWObex-250" value="" style="endArrow=none;dashed=1;html=1;rounded=0;exitX=0.867;exitY=-0.167;exitDx=0;exitDy=0;exitPerimeter=0;entryX=0.4;entryY=1.033;entryDx=0;entryDy=0;entryPerimeter=0;" edge="1" parent="1" source="Hvgk8vvtis6JtDLWObex-233" target="Hvgk8vvtis6JtDLWObex-240">
          <mxGeometry width="50" height="50" relative="1" as="geometry">
            <mxPoint x="230" y="260" as="sourcePoint" />
            <mxPoint x="280" y="210" as="targetPoint" />
          </mxGeometry>
        </mxCell>
        <mxCell id="Hvgk8vvtis6JtDLWObex-251" value="消息比特： &lt;span style=&quot;white-space: pre&quot;&gt;	&lt;/span&gt;m1=1&lt;span style=&quot;white-space: pre&quot;&gt;	&lt;span style=&quot;white-space: pre&quot;&gt;	&lt;/span&gt;&lt;span style=&quot;white-space: pre&quot;&gt;	&lt;/span&gt;&lt;span style=&quot;white-space: pre&quot;&gt;	&lt;/span&gt;&lt;/span&gt;m2=0&amp;nbsp; &amp;nbsp; &amp;nbsp; &amp;nbsp; &amp;nbsp; &amp;nbsp; &amp;nbsp; &amp;nbsp; &amp;nbsp; &amp;nbsp; &amp;nbsp; &amp;nbsp; &amp;nbsp; &amp;nbsp; &amp;nbsp; &amp;nbsp; &amp;nbsp; &amp;nbsp; m3=1&amp;nbsp;&lt;span style=&quot;white-space: pre&quot;&gt;	&lt;/span&gt;&lt;span style=&quot;white-space: pre&quot;&gt;	&lt;/span&gt;&lt;span style=&quot;white-space: pre&quot;&gt;	&lt;/span&gt;&lt;span style=&quot;white-space: pre&quot;&gt;	&lt;/span&gt;&lt;span style=&quot;white-space: pre&quot;&gt;	&lt;/span&gt;&lt;span style=&quot;white-space: pre&quot;&gt;	&lt;/span&gt;m4=1&amp;nbsp; &amp;nbsp; &amp;nbsp; &amp;nbsp; &amp;nbsp; &amp;nbsp; &amp;nbsp; &amp;nbsp; &amp;nbsp; &amp;nbsp; &amp;nbsp; &amp;nbsp; &amp;nbsp; &amp;nbsp; &amp;nbsp; &amp;nbsp; &amp;nbsp; m5=0&amp;nbsp; &amp;nbsp; &amp;nbsp; &amp;nbsp; &amp;nbsp; &amp;nbsp; &amp;nbsp; &amp;nbsp; &amp;nbsp; &amp;nbsp; &amp;nbsp; &amp;nbsp; &amp;nbsp; &amp;nbsp; &amp;nbsp; &amp;nbsp; &amp;nbsp; &amp;nbsp; &amp;nbsp;m6=1&amp;nbsp; &amp;nbsp; &amp;nbsp; &amp;nbsp; &amp;nbsp; &amp;nbsp; &amp;nbsp; &amp;nbsp; &amp;nbsp; &amp;nbsp; &amp;nbsp; &amp;nbsp; &amp;nbsp; &amp;nbsp; &amp;nbsp; &amp;nbsp; &amp;nbsp; &amp;nbsp;m7=1&amp;nbsp; &amp;nbsp; &amp;nbsp; &amp;nbsp; &amp;nbsp; &amp;nbsp; &amp;nbsp; &amp;nbsp; &amp;nbsp; &amp;nbsp; &amp;nbsp; &amp;nbsp; &amp;nbsp; &amp;nbsp; &amp;nbsp; &amp;nbsp; &amp;nbsp; &amp;nbsp; &amp;nbsp; &amp;nbsp; m8=1" style="text;html=1;resizable=0;autosize=1;align=left;verticalAlign=middle;points=[];fillColor=none;strokeColor=none;rounded=0;" vertex="1" parent="1">
          <mxGeometry x="95" y="340" width="1190" height="20" as="geometry" />
        </mxCell>
        <mxCell id="Hvgk8vvtis6JtDLWObex-252" value="1" style="text;html=1;resizable=0;autosize=1;align=center;verticalAlign=middle;points=[];fillColor=none;strokeColor=none;rounded=0;" vertex="1" parent="1">
          <mxGeometry x="340" y="120" width="20" height="20" as="geometry" />
        </mxCell>
        <mxCell id="Hvgk8vvtis6JtDLWObex-253" value="1" style="text;html=1;resizable=0;autosize=1;align=center;verticalAlign=middle;points=[];fillColor=none;strokeColor=none;rounded=0;" vertex="1" parent="1">
          <mxGeometry x="340" y="180" width="20" height="20" as="geometry" />
        </mxCell>
        <mxCell id="Hvgk8vvtis6JtDLWObex-254" value="" style="endArrow=none;html=1;rounded=0;entryX=0.167;entryY=0.467;entryDx=0;entryDy=0;entryPerimeter=0;" edge="1" parent="1" target="Hvgk8vvtis6JtDLWObex-252">
          <mxGeometry width="50" height="50" relative="1" as="geometry">
            <mxPoint x="320" y="130" as="sourcePoint" />
            <mxPoint x="340" y="135" as="targetPoint" />
          </mxGeometry>
        </mxCell>
        <mxCell id="Hvgk8vvtis6JtDLWObex-255" value="" style="endArrow=none;html=1;rounded=0;entryX=0.3;entryY=0.633;entryDx=0;entryDy=0;entryPerimeter=0;" edge="1" parent="1" target="Hvgk8vvtis6JtDLWObex-253">
          <mxGeometry width="50" height="50" relative="1" as="geometry">
            <mxPoint x="320" y="240" as="sourcePoint" />
            <mxPoint x="350" y="210" as="targetPoint" />
          </mxGeometry>
        </mxCell>
        <mxCell id="Hvgk8vvtis6JtDLWObex-256" value="2" style="text;html=1;resizable=0;autosize=1;align=center;verticalAlign=middle;points=[];fillColor=none;strokeColor=none;rounded=0;" vertex="1" parent="1">
          <mxGeometry x="394" y="120" width="20" height="20" as="geometry" />
        </mxCell>
        <mxCell id="Hvgk8vvtis6JtDLWObex-257" value="" style="endArrow=none;html=1;rounded=0;exitX=0.933;exitY=0.6;exitDx=0;exitDy=0;exitPerimeter=0;entryX=0;entryY=0.5;entryDx=0;entryDy=0;entryPerimeter=0;" edge="1" parent="1" source="Hvgk8vvtis6JtDLWObex-252" target="Hvgk8vvtis6JtDLWObex-256">
          <mxGeometry width="50" height="50" relative="1" as="geometry">
            <mxPoint x="300" y="260" as="sourcePoint" />
            <mxPoint x="350" y="210" as="targetPoint" />
          </mxGeometry>
        </mxCell>
        <mxCell id="Hvgk8vvtis6JtDLWObex-258" value="1" style="text;html=1;resizable=0;autosize=1;align=center;verticalAlign=middle;points=[];fillColor=none;strokeColor=none;rounded=0;" vertex="1" parent="1">
          <mxGeometry x="394" y="290" width="20" height="20" as="geometry" />
        </mxCell>
        <mxCell id="Hvgk8vvtis6JtDLWObex-259" value="" style="endArrow=none;html=1;rounded=0;entryX=1.033;entryY=0.967;entryDx=0;entryDy=0;entryPerimeter=0;" edge="1" parent="1" source="Hvgk8vvtis6JtDLWObex-258" target="Hvgk8vvtis6JtDLWObex-252">
          <mxGeometry width="50" height="50" relative="1" as="geometry">
            <mxPoint x="300" y="260" as="sourcePoint" />
            <mxPoint x="350" y="210" as="targetPoint" />
          </mxGeometry>
        </mxCell>
        <mxCell id="Hvgk8vvtis6JtDLWObex-260" value="2" style="text;html=1;resizable=0;autosize=1;align=center;verticalAlign=middle;points=[];fillColor=none;strokeColor=none;rounded=0;" vertex="1" parent="1">
          <mxGeometry x="394" y="180" width="20" height="20" as="geometry" />
        </mxCell>
        <mxCell id="Hvgk8vvtis6JtDLWObex-261" value="" style="endArrow=none;html=1;rounded=0;entryX=-0.233;entryY=0.567;entryDx=0;entryDy=0;entryPerimeter=0;exitX=1.033;exitY=0.567;exitDx=0;exitDy=0;exitPerimeter=0;" edge="1" parent="1" source="Hvgk8vvtis6JtDLWObex-253" target="Hvgk8vvtis6JtDLWObex-260">
          <mxGeometry width="50" height="50" relative="1" as="geometry">
            <mxPoint x="300" y="260" as="sourcePoint" />
            <mxPoint x="350" y="210" as="targetPoint" />
          </mxGeometry>
        </mxCell>
        <mxCell id="Hvgk8vvtis6JtDLWObex-262" value="1" style="text;html=1;resizable=0;autosize=1;align=center;verticalAlign=middle;points=[];fillColor=none;strokeColor=none;rounded=0;" vertex="1" parent="1">
          <mxGeometry x="394" y="230" width="20" height="20" as="geometry" />
        </mxCell>
        <mxCell id="Hvgk8vvtis6JtDLWObex-263" value="" style="endArrow=none;html=1;rounded=0;entryX=-0.1;entryY=0.667;entryDx=0;entryDy=0;entryPerimeter=0;exitX=0.867;exitY=0.867;exitDx=0;exitDy=0;exitPerimeter=0;" edge="1" parent="1" source="Hvgk8vvtis6JtDLWObex-253" target="Hvgk8vvtis6JtDLWObex-262">
          <mxGeometry width="50" height="50" relative="1" as="geometry">
            <mxPoint x="300" y="260" as="sourcePoint" />
            <mxPoint x="350" y="210" as="targetPoint" />
          </mxGeometry>
        </mxCell>
        <mxCell id="Hvgk8vvtis6JtDLWObex-264" value="2" style="text;html=1;resizable=0;autosize=1;align=center;verticalAlign=middle;points=[];fillColor=none;strokeColor=none;rounded=0;" vertex="1" parent="1">
          <mxGeometry x="450" y="120" width="20" height="20" as="geometry" />
        </mxCell>
        <mxCell id="Hvgk8vvtis6JtDLWObex-266" value="" style="endArrow=none;html=1;rounded=0;exitX=0.9;exitY=0.667;exitDx=0;exitDy=0;exitPerimeter=0;entryX=0.1;entryY=0.6;entryDx=0;entryDy=0;entryPerimeter=0;dashed=1;" edge="1" parent="1" source="Hvgk8vvtis6JtDLWObex-256" target="Hvgk8vvtis6JtDLWObex-264">
          <mxGeometry width="50" height="50" relative="1" as="geometry">
            <mxPoint x="370" y="260" as="sourcePoint" />
            <mxPoint x="420" y="210" as="targetPoint" />
          </mxGeometry>
        </mxCell>
        <mxCell id="Hvgk8vvtis6JtDLWObex-267" value="1" style="text;html=1;resizable=0;autosize=1;align=center;verticalAlign=middle;points=[];fillColor=none;strokeColor=none;rounded=0;" vertex="1" parent="1">
          <mxGeometry x="450" y="230" width="20" height="20" as="geometry" />
        </mxCell>
        <mxCell id="Hvgk8vvtis6JtDLWObex-268" value="" style="endArrow=none;dashed=1;html=1;rounded=0;entryX=0.8;entryY=0.8;entryDx=0;entryDy=0;entryPerimeter=0;exitX=0.1;exitY=0.333;exitDx=0;exitDy=0;exitPerimeter=0;" edge="1" parent="1" source="Hvgk8vvtis6JtDLWObex-267" target="Hvgk8vvtis6JtDLWObex-256">
          <mxGeometry width="50" height="50" relative="1" as="geometry">
            <mxPoint x="370" y="260" as="sourcePoint" />
            <mxPoint x="420" y="210" as="targetPoint" />
          </mxGeometry>
        </mxCell>
        <mxCell id="Hvgk8vvtis6JtDLWObex-269" value="2" style="text;html=1;resizable=0;autosize=1;align=center;verticalAlign=middle;points=[];fillColor=none;strokeColor=none;rounded=0;" vertex="1" parent="1">
          <mxGeometry x="450" y="180" width="20" height="20" as="geometry" />
        </mxCell>
        <mxCell id="Hvgk8vvtis6JtDLWObex-270" value="" style="endArrow=none;html=1;rounded=0;entryX=-0.133;entryY=0.567;entryDx=0;entryDy=0;entryPerimeter=0;exitX=1.033;exitY=0.633;exitDx=0;exitDy=0;exitPerimeter=0;" edge="1" parent="1" source="Hvgk8vvtis6JtDLWObex-260" target="Hvgk8vvtis6JtDLWObex-269">
          <mxGeometry width="50" height="50" relative="1" as="geometry">
            <mxPoint x="370" y="260" as="sourcePoint" />
            <mxPoint x="420" y="210" as="targetPoint" />
          </mxGeometry>
        </mxCell>
        <mxCell id="Hvgk8vvtis6JtDLWObex-271" value="1" style="text;html=1;resizable=0;autosize=1;align=center;verticalAlign=middle;points=[];fillColor=none;strokeColor=none;rounded=0;" vertex="1" parent="1">
          <mxGeometry x="450" y="290" width="20" height="20" as="geometry" />
        </mxCell>
        <mxCell id="Hvgk8vvtis6JtDLWObex-272" value="" style="endArrow=none;html=1;rounded=0;entryX=0.067;entryY=0.367;entryDx=0;entryDy=0;entryPerimeter=0;exitX=0.967;exitY=1;exitDx=0;exitDy=0;exitPerimeter=0;" edge="1" parent="1" source="Hvgk8vvtis6JtDLWObex-260" target="Hvgk8vvtis6JtDLWObex-271">
          <mxGeometry width="50" height="50" relative="1" as="geometry">
            <mxPoint x="370" y="260" as="sourcePoint" />
            <mxPoint x="420" y="210" as="targetPoint" />
          </mxGeometry>
        </mxCell>
        <mxCell id="Hvgk8vvtis6JtDLWObex-273" value="" style="endArrow=none;html=1;rounded=0;exitX=1.1;exitY=0.567;exitDx=0;exitDy=0;exitPerimeter=0;dashed=1;" edge="1" parent="1" source="Hvgk8vvtis6JtDLWObex-262">
          <mxGeometry width="50" height="50" relative="1" as="geometry">
            <mxPoint x="370" y="260" as="sourcePoint" />
            <mxPoint x="450" y="240" as="targetPoint" />
          </mxGeometry>
        </mxCell>
        <mxCell id="Hvgk8vvtis6JtDLWObex-274" value="" style="endArrow=none;html=1;rounded=0;entryX=0.433;entryY=0.9;entryDx=0;entryDy=0;entryPerimeter=0;exitX=0.733;exitY=0.2;exitDx=0;exitDy=0;exitPerimeter=0;dashed=1;" edge="1" parent="1" source="Hvgk8vvtis6JtDLWObex-262" target="Hvgk8vvtis6JtDLWObex-264">
          <mxGeometry width="50" height="50" relative="1" as="geometry">
            <mxPoint x="370" y="260" as="sourcePoint" />
            <mxPoint x="420" y="210" as="targetPoint" />
          </mxGeometry>
        </mxCell>
        <mxCell id="Hvgk8vvtis6JtDLWObex-275" value="" style="endArrow=none;html=1;rounded=0;entryX=0;entryY=0.5;entryDx=0;entryDy=0;entryPerimeter=0;exitX=1.167;exitY=0.5;exitDx=0;exitDy=0;exitPerimeter=0;" edge="1" parent="1" source="Hvgk8vvtis6JtDLWObex-258" target="Hvgk8vvtis6JtDLWObex-271">
          <mxGeometry width="50" height="50" relative="1" as="geometry">
            <mxPoint x="370" y="260" as="sourcePoint" />
            <mxPoint x="420" y="210" as="targetPoint" />
          </mxGeometry>
        </mxCell>
        <mxCell id="Hvgk8vvtis6JtDLWObex-276" value="" style="endArrow=none;html=1;rounded=0;entryX=0.267;entryY=0.967;entryDx=0;entryDy=0;entryPerimeter=0;exitX=0.933;exitY=0.3;exitDx=0;exitDy=0;exitPerimeter=0;" edge="1" parent="1" source="Hvgk8vvtis6JtDLWObex-258" target="Hvgk8vvtis6JtDLWObex-269">
          <mxGeometry width="50" height="50" relative="1" as="geometry">
            <mxPoint x="370" y="260" as="sourcePoint" />
            <mxPoint x="420" y="210" as="targetPoint" />
          </mxGeometry>
        </mxCell>
        <mxCell id="Hvgk8vvtis6JtDLWObex-277" value="2" style="text;html=1;resizable=0;autosize=1;align=center;verticalAlign=middle;points=[];fillColor=none;strokeColor=none;rounded=0;" vertex="1" parent="1">
          <mxGeometry x="505" y="120" width="20" height="20" as="geometry" />
        </mxCell>
        <mxCell id="Hvgk8vvtis6JtDLWObex-278" value="" style="endArrow=none;html=1;rounded=0;entryX=0.117;entryY=0.7;entryDx=0;entryDy=0;entryPerimeter=0;exitX=1.033;exitY=0.233;exitDx=0;exitDy=0;exitPerimeter=0;" edge="1" parent="1" source="Hvgk8vvtis6JtDLWObex-269" target="Hvgk8vvtis6JtDLWObex-277">
          <mxGeometry width="50" height="50" relative="1" as="geometry">
            <mxPoint x="370" y="260" as="sourcePoint" />
            <mxPoint x="420" y="210" as="targetPoint" />
          </mxGeometry>
        </mxCell>
        <mxCell id="Hvgk8vvtis6JtDLWObex-279" value="1" style="text;html=1;resizable=0;autosize=1;align=center;verticalAlign=middle;points=[];fillColor=none;strokeColor=none;rounded=0;" vertex="1" parent="1">
          <mxGeometry x="505" y="180" width="20" height="20" as="geometry" />
        </mxCell>
        <mxCell id="Hvgk8vvtis6JtDLWObex-280" value="" style="endArrow=none;html=1;rounded=0;exitX=0.9;exitY=0.367;exitDx=0;exitDy=0;exitPerimeter=0;" edge="1" parent="1" source="Hvgk8vvtis6JtDLWObex-271" target="Hvgk8vvtis6JtDLWObex-279">
          <mxGeometry width="50" height="50" relative="1" as="geometry">
            <mxPoint x="370" y="260" as="sourcePoint" />
            <mxPoint x="420" y="210" as="targetPoint" />
          </mxGeometry>
        </mxCell>
        <mxCell id="Hvgk8vvtis6JtDLWObex-281" value="&amp;nbsp; &amp;nbsp;3" style="text;html=1;resizable=0;autosize=1;align=center;verticalAlign=middle;points=[];fillColor=none;strokeColor=none;rounded=0;" vertex="1" parent="1">
          <mxGeometry x="555" y="120" width="30" height="20" as="geometry" />
        </mxCell>
        <mxCell id="Hvgk8vvtis6JtDLWObex-282" value="" style="endArrow=none;html=1;rounded=0;exitX=1.083;exitY=0.433;exitDx=0;exitDy=0;exitPerimeter=0;" edge="1" parent="1" source="Hvgk8vvtis6JtDLWObex-277">
          <mxGeometry width="50" height="50" relative="1" as="geometry">
            <mxPoint x="370" y="260" as="sourcePoint" />
            <mxPoint x="570" y="129" as="targetPoint" />
          </mxGeometry>
        </mxCell>
        <mxCell id="Hvgk8vvtis6JtDLWObex-283" value="2" style="text;html=1;resizable=0;autosize=1;align=center;verticalAlign=middle;points=[];fillColor=none;strokeColor=none;rounded=0;" vertex="1" parent="1">
          <mxGeometry x="565" y="290" width="20" height="20" as="geometry" />
        </mxCell>
        <mxCell id="Hvgk8vvtis6JtDLWObex-284" value="" style="endArrow=none;html=1;rounded=0;entryX=0.15;entryY=0.433;entryDx=0;entryDy=0;entryPerimeter=0;exitX=0.917;exitY=1.1;exitDx=0;exitDy=0;exitPerimeter=0;" edge="1" parent="1" source="Hvgk8vvtis6JtDLWObex-277" target="Hvgk8vvtis6JtDLWObex-283">
          <mxGeometry width="50" height="50" relative="1" as="geometry">
            <mxPoint x="370" y="260" as="sourcePoint" />
            <mxPoint x="420" y="210" as="targetPoint" />
          </mxGeometry>
        </mxCell>
        <mxCell id="Hvgk8vvtis6JtDLWObex-285" value="2" style="text;html=1;resizable=0;autosize=1;align=center;verticalAlign=middle;points=[];fillColor=none;strokeColor=none;rounded=0;" vertex="1" parent="1">
          <mxGeometry x="565" y="180" width="20" height="20" as="geometry" />
        </mxCell>
        <mxCell id="Hvgk8vvtis6JtDLWObex-286" value="" style="endArrow=none;html=1;rounded=0;entryX=-0.05;entryY=0.467;entryDx=0;entryDy=0;entryPerimeter=0;" edge="1" parent="1" target="Hvgk8vvtis6JtDLWObex-285">
          <mxGeometry width="50" height="50" relative="1" as="geometry">
            <mxPoint x="530" y="189" as="sourcePoint" />
            <mxPoint x="420" y="210" as="targetPoint" />
          </mxGeometry>
        </mxCell>
        <mxCell id="Hvgk8vvtis6JtDLWObex-287" value="1" style="text;html=1;resizable=0;autosize=1;align=center;verticalAlign=middle;points=[];fillColor=none;strokeColor=none;rounded=0;" vertex="1" parent="1">
          <mxGeometry x="565" y="230" width="20" height="20" as="geometry" />
        </mxCell>
        <mxCell id="Hvgk8vvtis6JtDLWObex-288" value="" style="endArrow=none;html=1;rounded=0;entryX=-0.083;entryY=0.533;entryDx=0;entryDy=0;entryPerimeter=0;exitX=0.817;exitY=0.833;exitDx=0;exitDy=0;exitPerimeter=0;" edge="1" parent="1" source="Hvgk8vvtis6JtDLWObex-279" target="Hvgk8vvtis6JtDLWObex-287">
          <mxGeometry width="50" height="50" relative="1" as="geometry">
            <mxPoint x="370" y="260" as="sourcePoint" />
            <mxPoint x="420" y="210" as="targetPoint" />
          </mxGeometry>
        </mxCell>
        <mxCell id="Hvgk8vvtis6JtDLWObex-290" value="2" style="text;html=1;resizable=0;autosize=1;align=center;verticalAlign=middle;points=[];fillColor=none;strokeColor=none;rounded=0;" vertex="1" parent="1">
          <mxGeometry x="620" y="120" width="20" height="20" as="geometry" />
        </mxCell>
        <mxCell id="Hvgk8vvtis6JtDLWObex-291" value="" style="endArrow=none;html=1;rounded=0;exitX=0.989;exitY=0.467;exitDx=0;exitDy=0;exitPerimeter=0;dashed=1;" edge="1" parent="1" source="Hvgk8vvtis6JtDLWObex-281">
          <mxGeometry width="50" height="50" relative="1" as="geometry">
            <mxPoint x="590" y="260" as="sourcePoint" />
            <mxPoint x="620" y="129" as="targetPoint" />
          </mxGeometry>
        </mxCell>
        <mxCell id="Hvgk8vvtis6JtDLWObex-292" value="1" style="text;html=1;resizable=0;autosize=1;align=center;verticalAlign=middle;points=[];fillColor=none;strokeColor=none;rounded=0;" vertex="1" parent="1">
          <mxGeometry x="620" y="230" width="20" height="20" as="geometry" />
        </mxCell>
        <mxCell id="Hvgk8vvtis6JtDLWObex-293" value="" style="endArrow=none;html=1;rounded=0;entryX=-0.067;entryY=0.5;entryDx=0;entryDy=0;entryPerimeter=0;dashed=1;" edge="1" parent="1" target="Hvgk8vvtis6JtDLWObex-292">
          <mxGeometry width="50" height="50" relative="1" as="geometry">
            <mxPoint x="590" y="140" as="sourcePoint" />
            <mxPoint x="430" y="210" as="targetPoint" />
          </mxGeometry>
        </mxCell>
        <mxCell id="Hvgk8vvtis6JtDLWObex-294" value="2" style="text;html=1;resizable=0;autosize=1;align=center;verticalAlign=middle;points=[];fillColor=none;strokeColor=none;rounded=0;" vertex="1" parent="1">
          <mxGeometry x="620" y="180" width="20" height="20" as="geometry" />
        </mxCell>
        <mxCell id="Hvgk8vvtis6JtDLWObex-295" value="" style="endArrow=none;html=1;rounded=0;entryX=0;entryY=0.533;entryDx=0;entryDy=0;entryPerimeter=0;exitX=0.85;exitY=0.5;exitDx=0;exitDy=0;exitPerimeter=0;" edge="1" parent="1" source="Hvgk8vvtis6JtDLWObex-285" target="Hvgk8vvtis6JtDLWObex-294">
          <mxGeometry width="50" height="50" relative="1" as="geometry">
            <mxPoint x="380" y="260" as="sourcePoint" />
            <mxPoint x="430" y="210" as="targetPoint" />
          </mxGeometry>
        </mxCell>
        <mxCell id="Hvgk8vvtis6JtDLWObex-296" value="2" style="text;html=1;resizable=0;autosize=1;align=center;verticalAlign=middle;points=[];fillColor=none;strokeColor=none;rounded=0;" vertex="1" parent="1">
          <mxGeometry x="620" y="290" width="20" height="20" as="geometry" />
        </mxCell>
        <mxCell id="Hvgk8vvtis6JtDLWObex-297" value="" style="endArrow=none;html=1;rounded=0;entryX=0.167;entryY=0.3;entryDx=0;entryDy=0;entryPerimeter=0;exitX=0.883;exitY=0.9;exitDx=0;exitDy=0;exitPerimeter=0;dashed=1;" edge="1" parent="1" source="Hvgk8vvtis6JtDLWObex-285" target="Hvgk8vvtis6JtDLWObex-296">
          <mxGeometry width="50" height="50" relative="1" as="geometry">
            <mxPoint x="380" y="260" as="sourcePoint" />
            <mxPoint x="430" y="210" as="targetPoint" />
          </mxGeometry>
        </mxCell>
        <mxCell id="Hvgk8vvtis6JtDLWObex-298" value="" style="endArrow=none;html=1;rounded=0;exitX=0.917;exitY=0.6;exitDx=0;exitDy=0;exitPerimeter=0;dashed=1;" edge="1" parent="1" source="Hvgk8vvtis6JtDLWObex-287">
          <mxGeometry width="50" height="50" relative="1" as="geometry">
            <mxPoint x="380" y="260" as="sourcePoint" />
            <mxPoint x="620" y="242" as="targetPoint" />
          </mxGeometry>
        </mxCell>
        <mxCell id="Hvgk8vvtis6JtDLWObex-299" value="" style="endArrow=none;html=1;rounded=0;entryX=0.233;entryY=0.7;entryDx=0;entryDy=0;entryPerimeter=0;exitX=0.95;exitY=0.467;exitDx=0;exitDy=0;exitPerimeter=0;dashed=1;" edge="1" parent="1" source="Hvgk8vvtis6JtDLWObex-287" target="Hvgk8vvtis6JtDLWObex-290">
          <mxGeometry width="50" height="50" relative="1" as="geometry">
            <mxPoint x="380" y="260" as="sourcePoint" />
            <mxPoint x="430" y="210" as="targetPoint" />
          </mxGeometry>
        </mxCell>
        <mxCell id="Hvgk8vvtis6JtDLWObex-300" value="" style="endArrow=none;html=1;rounded=0;entryX=-0.1;entryY=0.433;entryDx=0;entryDy=0;entryPerimeter=0;" edge="1" parent="1" target="Hvgk8vvtis6JtDLWObex-296">
          <mxGeometry width="50" height="50" relative="1" as="geometry">
            <mxPoint x="580" y="299" as="sourcePoint" />
            <mxPoint x="430" y="210" as="targetPoint" />
          </mxGeometry>
        </mxCell>
        <mxCell id="Hvgk8vvtis6JtDLWObex-301" value="" style="endArrow=none;dashed=1;html=1;rounded=0;entryX=0.167;entryY=1;entryDx=0;entryDy=0;entryPerimeter=0;exitX=0.983;exitY=0.3;exitDx=0;exitDy=0;exitPerimeter=0;" edge="1" parent="1" source="Hvgk8vvtis6JtDLWObex-283" target="Hvgk8vvtis6JtDLWObex-294">
          <mxGeometry width="50" height="50" relative="1" as="geometry">
            <mxPoint x="380" y="260" as="sourcePoint" />
            <mxPoint x="430" y="210" as="targetPoint" />
          </mxGeometry>
        </mxCell>
        <mxCell id="Hvgk8vvtis6JtDLWObex-302" value="2" style="text;html=1;resizable=0;autosize=1;align=center;verticalAlign=middle;points=[];fillColor=none;strokeColor=none;rounded=0;" vertex="1" parent="1">
          <mxGeometry x="670" y="120" width="20" height="20" as="geometry" />
        </mxCell>
        <mxCell id="Hvgk8vvtis6JtDLWObex-303" value="" style="endArrow=none;html=1;rounded=0;entryX=0.2;entryY=0.7;entryDx=0;entryDy=0;entryPerimeter=0;exitX=1.033;exitY=0.433;exitDx=0;exitDy=0;exitPerimeter=0;" edge="1" parent="1" source="Hvgk8vvtis6JtDLWObex-294" target="Hvgk8vvtis6JtDLWObex-302">
          <mxGeometry width="50" height="50" relative="1" as="geometry">
            <mxPoint x="420" y="270" as="sourcePoint" />
            <mxPoint x="470" y="220" as="targetPoint" />
          </mxGeometry>
        </mxCell>
        <mxCell id="Hvgk8vvtis6JtDLWObex-304" value="2" style="text;html=1;resizable=0;autosize=1;align=center;verticalAlign=middle;points=[];fillColor=none;strokeColor=none;rounded=0;" vertex="1" parent="1">
          <mxGeometry x="670" y="180" width="20" height="20" as="geometry" />
        </mxCell>
        <mxCell id="Hvgk8vvtis6JtDLWObex-307" value="" style="endArrow=none;html=1;rounded=0;exitX=0.8;exitY=0.167;exitDx=0;exitDy=0;exitPerimeter=0;" edge="1" parent="1" source="Hvgk8vvtis6JtDLWObex-296" target="Hvgk8vvtis6JtDLWObex-304">
          <mxGeometry width="50" height="50" relative="1" as="geometry">
            <mxPoint x="420" y="270" as="sourcePoint" />
            <mxPoint x="470" y="220" as="targetPoint" />
          </mxGeometry>
        </mxCell>
        <mxCell id="Hvgk8vvtis6JtDLWObex-308" value="2" style="text;html=1;resizable=0;autosize=1;align=center;verticalAlign=middle;points=[];fillColor=none;strokeColor=none;rounded=0;" vertex="1" parent="1">
          <mxGeometry x="720" y="120" width="20" height="20" as="geometry" />
        </mxCell>
        <mxCell id="Hvgk8vvtis6JtDLWObex-309" value="2" style="text;html=1;resizable=0;autosize=1;align=center;verticalAlign=middle;points=[];fillColor=none;strokeColor=none;rounded=0;" vertex="1" parent="1">
          <mxGeometry x="720" y="180" width="20" height="20" as="geometry" />
        </mxCell>
        <mxCell id="Hvgk8vvtis6JtDLWObex-310" value="" style="endArrow=none;html=1;rounded=0;entryX=0.067;entryY=0.533;entryDx=0;entryDy=0;entryPerimeter=0;exitX=0.867;exitY=0.5;exitDx=0;exitDy=0;exitPerimeter=0;" edge="1" parent="1" source="Hvgk8vvtis6JtDLWObex-302" target="Hvgk8vvtis6JtDLWObex-308">
          <mxGeometry width="50" height="50" relative="1" as="geometry">
            <mxPoint x="580" y="270" as="sourcePoint" />
            <mxPoint x="630" y="220" as="targetPoint" />
          </mxGeometry>
        </mxCell>
        <mxCell id="Hvgk8vvtis6JtDLWObex-312" value="" style="endArrow=none;html=1;rounded=0;entryX=0;entryY=0.633;entryDx=0;entryDy=0;entryPerimeter=0;exitX=0.9;exitY=0.567;exitDx=0;exitDy=0;exitPerimeter=0;" edge="1" parent="1" source="Hvgk8vvtis6JtDLWObex-304" target="Hvgk8vvtis6JtDLWObex-309">
          <mxGeometry width="50" height="50" relative="1" as="geometry">
            <mxPoint x="580" y="270" as="sourcePoint" />
            <mxPoint x="630" y="220" as="targetPoint" />
          </mxGeometry>
        </mxCell>
        <mxCell id="Hvgk8vvtis6JtDLWObex-313" value="3" style="text;html=1;resizable=0;autosize=1;align=center;verticalAlign=middle;points=[];fillColor=none;strokeColor=none;rounded=0;" vertex="1" parent="1">
          <mxGeometry x="720" y="290" width="20" height="20" as="geometry" />
        </mxCell>
        <mxCell id="Hvgk8vvtis6JtDLWObex-314" value="" style="endArrow=none;html=1;rounded=0;entryX=0.267;entryY=0.4;entryDx=0;entryDy=0;entryPerimeter=0;exitX=0.867;exitY=0.6;exitDx=0;exitDy=0;exitPerimeter=0;" edge="1" parent="1" source="Hvgk8vvtis6JtDLWObex-302" target="Hvgk8vvtis6JtDLWObex-313">
          <mxGeometry width="50" height="50" relative="1" as="geometry">
            <mxPoint x="570" y="270" as="sourcePoint" />
            <mxPoint x="620" y="220" as="targetPoint" />
          </mxGeometry>
        </mxCell>
        <mxCell id="Hvgk8vvtis6JtDLWObex-315" value="3" style="text;html=1;resizable=0;autosize=1;align=center;verticalAlign=middle;points=[];fillColor=none;strokeColor=none;rounded=0;" vertex="1" parent="1">
          <mxGeometry x="720" y="230" width="20" height="20" as="geometry" />
        </mxCell>
        <mxCell id="Hvgk8vvtis6JtDLWObex-316" value="" style="endArrow=none;html=1;rounded=0;entryX=0.233;entryY=0.3;entryDx=0;entryDy=0;entryPerimeter=0;exitX=0.667;exitY=0.767;exitDx=0;exitDy=0;exitPerimeter=0;" edge="1" parent="1" source="Hvgk8vvtis6JtDLWObex-304" target="Hvgk8vvtis6JtDLWObex-315">
          <mxGeometry width="50" height="50" relative="1" as="geometry">
            <mxPoint x="800" y="270" as="sourcePoint" />
            <mxPoint x="850" y="220" as="targetPoint" />
          </mxGeometry>
        </mxCell>
        <mxCell id="Hvgk8vvtis6JtDLWObex-317" value="3" style="text;html=1;resizable=0;autosize=1;align=center;verticalAlign=middle;points=[];fillColor=none;strokeColor=none;rounded=0;" vertex="1" parent="1">
          <mxGeometry x="760" y="120" width="20" height="20" as="geometry" />
        </mxCell>
        <mxCell id="Hvgk8vvtis6JtDLWObex-318" value="" style="endArrow=none;html=1;rounded=0;exitX=0.967;exitY=0.533;exitDx=0;exitDy=0;exitPerimeter=0;" edge="1" parent="1" source="Hvgk8vvtis6JtDLWObex-308">
          <mxGeometry width="50" height="50" relative="1" as="geometry">
            <mxPoint x="800" y="270" as="sourcePoint" />
            <mxPoint x="760" y="131" as="targetPoint" />
          </mxGeometry>
        </mxCell>
        <mxCell id="Hvgk8vvtis6JtDLWObex-319" value="2" style="text;html=1;resizable=0;autosize=1;align=center;verticalAlign=middle;points=[];fillColor=none;strokeColor=none;rounded=0;" vertex="1" parent="1">
          <mxGeometry x="760" y="230" width="20" height="20" as="geometry" />
        </mxCell>
        <mxCell id="Hvgk8vvtis6JtDLWObex-320" value="" style="endArrow=none;html=1;rounded=0;entryX=0.3;entryY=0.333;entryDx=0;entryDy=0;entryPerimeter=0;exitX=0.667;exitY=0.967;exitDx=0;exitDy=0;exitPerimeter=0;" edge="1" parent="1" source="Hvgk8vvtis6JtDLWObex-308" target="Hvgk8vvtis6JtDLWObex-319">
          <mxGeometry width="50" height="50" relative="1" as="geometry">
            <mxPoint x="500" y="270" as="sourcePoint" />
            <mxPoint x="550" y="220" as="targetPoint" />
          </mxGeometry>
        </mxCell>
        <mxCell id="Hvgk8vvtis6JtDLWObex-321" value="3" style="text;html=1;resizable=0;autosize=1;align=center;verticalAlign=middle;points=[];fillColor=none;strokeColor=none;rounded=0;" vertex="1" parent="1">
          <mxGeometry x="760" y="180" width="20" height="20" as="geometry" />
        </mxCell>
        <mxCell id="Hvgk8vvtis6JtDLWObex-322" value="" style="endArrow=none;html=1;rounded=0;entryX=0.133;entryY=0.433;entryDx=0;entryDy=0;entryPerimeter=0;dashed=1;" edge="1" parent="1" target="Hvgk8vvtis6JtDLWObex-321">
          <mxGeometry width="50" height="50" relative="1" as="geometry">
            <mxPoint x="740" y="189" as="sourcePoint" />
            <mxPoint x="550" y="220" as="targetPoint" />
          </mxGeometry>
        </mxCell>
        <mxCell id="Hvgk8vvtis6JtDLWObex-323" value="2" style="text;html=1;resizable=0;autosize=1;align=center;verticalAlign=middle;points=[];fillColor=none;strokeColor=none;rounded=0;" vertex="1" parent="1">
          <mxGeometry x="760" y="290" width="20" height="20" as="geometry" />
        </mxCell>
        <mxCell id="Hvgk8vvtis6JtDLWObex-324" value="" style="endArrow=none;html=1;rounded=0;entryX=0.167;entryY=0.467;entryDx=0;entryDy=0;entryPerimeter=0;exitX=0.7;exitY=1;exitDx=0;exitDy=0;exitPerimeter=0;dashed=1;" edge="1" parent="1" source="Hvgk8vvtis6JtDLWObex-309" target="Hvgk8vvtis6JtDLWObex-323">
          <mxGeometry width="50" height="50" relative="1" as="geometry">
            <mxPoint x="540" y="270" as="sourcePoint" />
            <mxPoint x="590" y="220" as="targetPoint" />
          </mxGeometry>
        </mxCell>
        <mxCell id="Hvgk8vvtis6JtDLWObex-325" value="" style="endArrow=none;dashed=1;html=1;rounded=0;entryX=0.233;entryY=0.467;entryDx=0;entryDy=0;entryPerimeter=0;" edge="1" parent="1" target="Hvgk8vvtis6JtDLWObex-319">
          <mxGeometry width="50" height="50" relative="1" as="geometry">
            <mxPoint x="740" y="239" as="sourcePoint" />
            <mxPoint x="590" y="220" as="targetPoint" />
          </mxGeometry>
        </mxCell>
        <mxCell id="Hvgk8vvtis6JtDLWObex-326" value="" style="endArrow=none;html=1;rounded=0;" edge="1" parent="1" source="Hvgk8vvtis6JtDLWObex-315" target="Hvgk8vvtis6JtDLWObex-317">
          <mxGeometry width="50" height="50" relative="1" as="geometry">
            <mxPoint x="580" y="270" as="sourcePoint" />
            <mxPoint x="630" y="220" as="targetPoint" />
            <Array as="points" />
          </mxGeometry>
        </mxCell>
        <mxCell id="Hvgk8vvtis6JtDLWObex-327" value="" style="endArrow=none;dashed=1;html=1;rounded=0;entryX=0.133;entryY=0.6;entryDx=0;entryDy=0;entryPerimeter=0;exitX=1;exitY=0.6;exitDx=0;exitDy=0;exitPerimeter=0;" edge="1" parent="1" source="Hvgk8vvtis6JtDLWObex-313" target="Hvgk8vvtis6JtDLWObex-323">
          <mxGeometry width="50" height="50" relative="1" as="geometry">
            <mxPoint x="580" y="270" as="sourcePoint" />
            <mxPoint x="630" y="220" as="targetPoint" />
          </mxGeometry>
        </mxCell>
        <mxCell id="Hvgk8vvtis6JtDLWObex-328" value="" style="endArrow=none;html=1;rounded=0;entryX=0.167;entryY=0.833;entryDx=0;entryDy=0;entryPerimeter=0;exitX=0.8;exitY=0.367;exitDx=0;exitDy=0;exitPerimeter=0;dashed=1;" edge="1" parent="1" source="Hvgk8vvtis6JtDLWObex-313" target="Hvgk8vvtis6JtDLWObex-321">
          <mxGeometry width="50" height="50" relative="1" as="geometry">
            <mxPoint x="730" y="270" as="sourcePoint" />
            <mxPoint x="780" y="220" as="targetPoint" />
          </mxGeometry>
        </mxCell>
        <mxCell id="Hvgk8vvtis6JtDLWObex-331" value="3" style="text;html=1;resizable=0;autosize=1;align=center;verticalAlign=middle;points=[];fillColor=none;strokeColor=none;rounded=0;" vertex="1" parent="1">
          <mxGeometry x="820" y="120" width="20" height="20" as="geometry" />
        </mxCell>
        <mxCell id="Hvgk8vvtis6JtDLWObex-332" value="" style="endArrow=none;html=1;rounded=0;exitX=0.967;exitY=0.633;exitDx=0;exitDy=0;exitPerimeter=0;" edge="1" parent="1" source="Hvgk8vvtis6JtDLWObex-317">
          <mxGeometry width="50" height="50" relative="1" as="geometry">
            <mxPoint x="750" y="270" as="sourcePoint" />
            <mxPoint x="820" y="133" as="targetPoint" />
          </mxGeometry>
        </mxCell>
        <mxCell id="Hvgk8vvtis6JtDLWObex-333" value="2" style="text;html=1;resizable=0;autosize=1;align=center;verticalAlign=middle;points=[];fillColor=none;strokeColor=none;rounded=0;" vertex="1" parent="1">
          <mxGeometry x="820" y="180" width="20" height="20" as="geometry" />
        </mxCell>
        <mxCell id="Hvgk8vvtis6JtDLWObex-334" value="" style="endArrow=none;html=1;rounded=0;entryX=0.2;entryY=0.833;entryDx=0;entryDy=0;entryPerimeter=0;exitX=0.867;exitY=0.4;exitDx=0;exitDy=0;exitPerimeter=0;" edge="1" parent="1" source="Hvgk8vvtis6JtDLWObex-319" target="Hvgk8vvtis6JtDLWObex-333">
          <mxGeometry width="50" height="50" relative="1" as="geometry">
            <mxPoint x="740" y="270" as="sourcePoint" />
            <mxPoint x="790" y="220" as="targetPoint" />
          </mxGeometry>
        </mxCell>
        <mxCell id="Hvgk8vvtis6JtDLWObex-335" value="4" style="text;html=1;resizable=0;autosize=1;align=center;verticalAlign=middle;points=[];fillColor=none;strokeColor=none;rounded=0;" vertex="1" parent="1">
          <mxGeometry x="870" y="120" width="20" height="20" as="geometry" />
        </mxCell>
        <mxCell id="Hvgk8vvtis6JtDLWObex-336" value="" style="endArrow=none;html=1;rounded=0;entryX=-0.067;entryY=0.533;entryDx=0;entryDy=0;entryPerimeter=0;exitX=1.167;exitY=0.533;exitDx=0;exitDy=0;exitPerimeter=0;" edge="1" parent="1" source="Hvgk8vvtis6JtDLWObex-331" target="Hvgk8vvtis6JtDLWObex-335">
          <mxGeometry width="50" height="50" relative="1" as="geometry">
            <mxPoint x="750" y="270" as="sourcePoint" />
            <mxPoint x="800" y="220" as="targetPoint" />
          </mxGeometry>
        </mxCell>
        <mxCell id="Hvgk8vvtis6JtDLWObex-337" value="3" style="text;html=1;resizable=0;autosize=1;align=center;verticalAlign=middle;points=[];fillColor=none;strokeColor=none;rounded=0;" vertex="1" parent="1">
          <mxGeometry x="870" y="290" width="20" height="20" as="geometry" />
        </mxCell>
        <mxCell id="Hvgk8vvtis6JtDLWObex-338" value="" style="endArrow=none;html=1;rounded=0;exitX=0.867;exitY=0.867;exitDx=0;exitDy=0;exitPerimeter=0;entryX=0.2;entryY=-0.067;entryDx=0;entryDy=0;entryPerimeter=0;" edge="1" parent="1" source="Hvgk8vvtis6JtDLWObex-331" target="Hvgk8vvtis6JtDLWObex-337">
          <mxGeometry width="50" height="50" relative="1" as="geometry">
            <mxPoint x="920" y="270" as="sourcePoint" />
            <mxPoint x="970" y="220" as="targetPoint" />
          </mxGeometry>
        </mxCell>
        <mxCell id="Hvgk8vvtis6JtDLWObex-339" value="3" style="text;html=1;resizable=0;autosize=1;align=center;verticalAlign=middle;points=[];fillColor=none;strokeColor=none;rounded=0;" vertex="1" parent="1">
          <mxGeometry x="870" y="180" width="20" height="20" as="geometry" />
        </mxCell>
        <mxCell id="Hvgk8vvtis6JtDLWObex-340" value="" style="endArrow=none;html=1;rounded=0;exitX=0.933;exitY=0.4;exitDx=0;exitDy=0;exitPerimeter=0;entryX=-0.133;entryY=0.5;entryDx=0;entryDy=0;entryPerimeter=0;" edge="1" parent="1" source="Hvgk8vvtis6JtDLWObex-333" target="Hvgk8vvtis6JtDLWObex-339">
          <mxGeometry width="50" height="50" relative="1" as="geometry">
            <mxPoint x="920" y="270" as="sourcePoint" />
            <mxPoint x="970" y="220" as="targetPoint" />
          </mxGeometry>
        </mxCell>
        <mxCell id="Hvgk8vvtis6JtDLWObex-341" value="2" style="text;html=1;resizable=0;autosize=1;align=center;verticalAlign=middle;points=[];fillColor=none;strokeColor=none;rounded=0;" vertex="1" parent="1">
          <mxGeometry x="870" y="230" width="20" height="20" as="geometry" />
        </mxCell>
        <mxCell id="Hvgk8vvtis6JtDLWObex-342" value="" style="endArrow=none;html=1;rounded=0;entryX=-0.033;entryY=0.767;entryDx=0;entryDy=0;entryPerimeter=0;exitX=0.8;exitY=0.833;exitDx=0;exitDy=0;exitPerimeter=0;" edge="1" parent="1" source="Hvgk8vvtis6JtDLWObex-333" target="Hvgk8vvtis6JtDLWObex-341">
          <mxGeometry width="50" height="50" relative="1" as="geometry">
            <mxPoint x="720" y="270" as="sourcePoint" />
            <mxPoint x="770" y="220" as="targetPoint" />
          </mxGeometry>
        </mxCell>
        <mxCell id="Hvgk8vvtis6JtDLWObex-343" value="3" style="text;html=1;resizable=0;autosize=1;align=center;verticalAlign=middle;points=[];fillColor=none;strokeColor=none;rounded=0;" vertex="1" parent="1">
          <mxGeometry x="920" y="120" width="20" height="20" as="geometry" />
        </mxCell>
        <mxCell id="Hvgk8vvtis6JtDLWObex-344" value="" style="endArrow=none;html=1;rounded=0;entryX=0.1;entryY=0.4;entryDx=0;entryDy=0;entryPerimeter=0;dashed=1;" edge="1" parent="1" target="Hvgk8vvtis6JtDLWObex-343">
          <mxGeometry width="50" height="50" relative="1" as="geometry">
            <mxPoint x="890" y="128" as="sourcePoint" />
            <mxPoint x="920" y="134" as="targetPoint" />
          </mxGeometry>
        </mxCell>
        <mxCell id="Hvgk8vvtis6JtDLWObex-345" value="2" style="text;html=1;resizable=0;autosize=1;align=center;verticalAlign=middle;points=[];fillColor=none;strokeColor=none;rounded=0;" vertex="1" parent="1">
          <mxGeometry x="920" y="230" width="20" height="20" as="geometry" />
        </mxCell>
        <mxCell id="Hvgk8vvtis6JtDLWObex-346" value="" style="endArrow=none;html=1;rounded=0;entryX=0.6;entryY=0.833;entryDx=0;entryDy=0;entryPerimeter=0;dashed=1;" edge="1" parent="1" target="Hvgk8vvtis6JtDLWObex-335">
          <mxGeometry width="50" height="50" relative="1" as="geometry">
            <mxPoint x="920" y="230" as="sourcePoint" />
            <mxPoint x="960" y="220" as="targetPoint" />
          </mxGeometry>
        </mxCell>
        <mxCell id="Hvgk8vvtis6JtDLWObex-347" value="3" style="text;html=1;resizable=0;autosize=1;align=center;verticalAlign=middle;points=[];fillColor=none;strokeColor=none;rounded=0;" vertex="1" parent="1">
          <mxGeometry x="920" y="180" width="20" height="20" as="geometry" />
        </mxCell>
        <mxCell id="Hvgk8vvtis6JtDLWObex-348" value="" style="endArrow=none;html=1;rounded=0;entryX=0.167;entryY=0.533;entryDx=0;entryDy=0;entryPerimeter=0;exitX=1;exitY=0.467;exitDx=0;exitDy=0;exitPerimeter=0;" edge="1" parent="1" source="Hvgk8vvtis6JtDLWObex-339" target="Hvgk8vvtis6JtDLWObex-347">
          <mxGeometry width="50" height="50" relative="1" as="geometry">
            <mxPoint x="910" y="270" as="sourcePoint" />
            <mxPoint x="960" y="220" as="targetPoint" />
          </mxGeometry>
        </mxCell>
        <mxCell id="Hvgk8vvtis6JtDLWObex-349" value="3" style="text;html=1;resizable=0;autosize=1;align=center;verticalAlign=middle;points=[];fillColor=none;strokeColor=none;rounded=0;" vertex="1" parent="1">
          <mxGeometry x="920" y="290" width="20" height="20" as="geometry" />
        </mxCell>
        <mxCell id="Hvgk8vvtis6JtDLWObex-350" value="" style="endArrow=none;html=1;rounded=0;exitX=0.767;exitY=0.767;exitDx=0;exitDy=0;exitPerimeter=0;entryX=0.167;entryY=0.133;entryDx=0;entryDy=0;entryPerimeter=0;dashed=1;" edge="1" parent="1" source="Hvgk8vvtis6JtDLWObex-339" target="Hvgk8vvtis6JtDLWObex-349">
          <mxGeometry width="50" height="50" relative="1" as="geometry">
            <mxPoint x="970" y="270" as="sourcePoint" />
            <mxPoint x="1020" y="220" as="targetPoint" />
          </mxGeometry>
        </mxCell>
        <mxCell id="Hvgk8vvtis6JtDLWObex-351" value="" style="endArrow=none;html=1;rounded=0;exitX=0.833;exitY=0.6;exitDx=0;exitDy=0;exitPerimeter=0;dashed=1;" edge="1" parent="1" source="Hvgk8vvtis6JtDLWObex-341">
          <mxGeometry width="50" height="50" relative="1" as="geometry">
            <mxPoint x="970" y="270" as="sourcePoint" />
            <mxPoint x="920" y="242" as="targetPoint" />
          </mxGeometry>
        </mxCell>
        <mxCell id="Hvgk8vvtis6JtDLWObex-352" value="" style="endArrow=none;html=1;rounded=0;entryX=0.633;entryY=0.867;entryDx=0;entryDy=0;entryPerimeter=0;dashed=1;" edge="1" parent="1" target="Hvgk8vvtis6JtDLWObex-343">
          <mxGeometry width="50" height="50" relative="1" as="geometry">
            <mxPoint x="890" y="230" as="sourcePoint" />
            <mxPoint x="920" y="220" as="targetPoint" />
          </mxGeometry>
        </mxCell>
        <mxCell id="Hvgk8vvtis6JtDLWObex-353" value="" style="endArrow=none;html=1;rounded=0;exitX=1.033;exitY=0.467;exitDx=0;exitDy=0;exitPerimeter=0;entryX=0;entryY=0.533;entryDx=0;entryDy=0;entryPerimeter=0;" edge="1" parent="1" source="Hvgk8vvtis6JtDLWObex-337" target="Hvgk8vvtis6JtDLWObex-349">
          <mxGeometry width="50" height="50" relative="1" as="geometry">
            <mxPoint x="870" y="270" as="sourcePoint" />
            <mxPoint x="920" y="220" as="targetPoint" />
          </mxGeometry>
        </mxCell>
        <mxCell id="Hvgk8vvtis6JtDLWObex-354" value="" style="endArrow=none;dashed=1;html=1;rounded=0;exitX=0.6;exitY=0.133;exitDx=0;exitDy=0;exitPerimeter=0;entryX=0.2;entryY=0.8;entryDx=0;entryDy=0;entryPerimeter=0;" edge="1" parent="1" source="Hvgk8vvtis6JtDLWObex-337" target="Hvgk8vvtis6JtDLWObex-347">
          <mxGeometry width="50" height="50" relative="1" as="geometry">
            <mxPoint x="880" y="270" as="sourcePoint" />
            <mxPoint x="930" y="220" as="targetPoint" />
          </mxGeometry>
        </mxCell>
        <mxCell id="Hvgk8vvtis6JtDLWObex-355" value="3" style="text;html=1;resizable=0;autosize=1;align=center;verticalAlign=middle;points=[];fillColor=none;strokeColor=none;rounded=0;" vertex="1" parent="1">
          <mxGeometry x="970" y="120" width="20" height="20" as="geometry" />
        </mxCell>
        <mxCell id="Hvgk8vvtis6JtDLWObex-356" value="" style="endArrow=none;html=1;rounded=0;exitX=0.8;exitY=0.467;exitDx=0;exitDy=0;exitPerimeter=0;entryX=0.167;entryY=0.667;entryDx=0;entryDy=0;entryPerimeter=0;" edge="1" parent="1" source="Hvgk8vvtis6JtDLWObex-347" target="Hvgk8vvtis6JtDLWObex-355">
          <mxGeometry width="50" height="50" relative="1" as="geometry">
            <mxPoint x="930" y="270" as="sourcePoint" />
            <mxPoint x="980" y="220" as="targetPoint" />
          </mxGeometry>
        </mxCell>
        <mxCell id="Hvgk8vvtis6JtDLWObex-357" value="3" style="text;html=1;resizable=0;autosize=1;align=center;verticalAlign=middle;points=[];fillColor=none;strokeColor=none;rounded=0;" vertex="1" parent="1">
          <mxGeometry x="970" y="180" width="20" height="20" as="geometry" />
        </mxCell>
        <mxCell id="Hvgk8vvtis6JtDLWObex-358" value="" style="endArrow=none;html=1;rounded=0;exitX=1.133;exitY=0.533;exitDx=0;exitDy=0;exitPerimeter=0;entryX=0.167;entryY=0.767;entryDx=0;entryDy=0;entryPerimeter=0;" edge="1" parent="1" source="Hvgk8vvtis6JtDLWObex-349" target="Hvgk8vvtis6JtDLWObex-357">
          <mxGeometry width="50" height="50" relative="1" as="geometry">
            <mxPoint x="1040" y="270" as="sourcePoint" />
            <mxPoint x="1090" y="220" as="targetPoint" />
          </mxGeometry>
        </mxCell>
        <mxCell id="Hvgk8vvtis6JtDLWObex-359" value="4" style="text;html=1;resizable=0;autosize=1;align=center;verticalAlign=middle;points=[];fillColor=none;strokeColor=none;rounded=0;" vertex="1" parent="1">
          <mxGeometry x="1020" y="120" width="20" height="20" as="geometry" />
        </mxCell>
        <mxCell id="Hvgk8vvtis6JtDLWObex-360" value="4" style="text;html=1;resizable=0;autosize=1;align=center;verticalAlign=middle;points=[];fillColor=none;strokeColor=none;rounded=0;" vertex="1" parent="1">
          <mxGeometry x="1020" y="180" width="20" height="20" as="geometry" />
        </mxCell>
        <mxCell id="Hvgk8vvtis6JtDLWObex-361" value="" style="endArrow=none;html=1;rounded=0;entryX=0.1;entryY=0.433;entryDx=0;entryDy=0;entryPerimeter=0;" edge="1" parent="1" target="Hvgk8vvtis6JtDLWObex-359">
          <mxGeometry width="50" height="50" relative="1" as="geometry">
            <mxPoint x="990" y="129" as="sourcePoint" />
            <mxPoint x="1120" y="220" as="targetPoint" />
            <Array as="points" />
          </mxGeometry>
        </mxCell>
        <mxCell id="Hvgk8vvtis6JtDLWObex-362" value="" style="endArrow=none;html=1;rounded=0;entryX=0;entryY=0.5;entryDx=0;entryDy=0;entryPerimeter=0;exitX=1.033;exitY=0.533;exitDx=0;exitDy=0;exitPerimeter=0;" edge="1" parent="1" source="Hvgk8vvtis6JtDLWObex-357" target="Hvgk8vvtis6JtDLWObex-360">
          <mxGeometry width="50" height="50" relative="1" as="geometry">
            <mxPoint x="1000" y="139" as="sourcePoint" />
            <mxPoint x="1032" y="138.65999999999997" as="targetPoint" />
            <Array as="points" />
          </mxGeometry>
        </mxCell>
        <mxCell id="Hvgk8vvtis6JtDLWObex-364" value="3" style="text;html=1;resizable=0;autosize=1;align=center;verticalAlign=middle;points=[];fillColor=none;strokeColor=none;rounded=0;" vertex="1" parent="1">
          <mxGeometry x="1020" y="290" width="20" height="20" as="geometry" />
        </mxCell>
        <mxCell id="Hvgk8vvtis6JtDLWObex-365" value="" style="endArrow=none;html=1;rounded=0;exitX=0.9;exitY=0.867;exitDx=0;exitDy=0;exitPerimeter=0;entryX=0.167;entryY=-0.133;entryDx=0;entryDy=0;entryPerimeter=0;" edge="1" parent="1" source="Hvgk8vvtis6JtDLWObex-355" target="Hvgk8vvtis6JtDLWObex-364">
          <mxGeometry width="50" height="50" relative="1" as="geometry">
            <mxPoint x="1090" y="270" as="sourcePoint" />
            <mxPoint x="1140" y="220" as="targetPoint" />
          </mxGeometry>
        </mxCell>
        <mxCell id="Hvgk8vvtis6JtDLWObex-366" value="3" style="text;html=1;resizable=0;autosize=1;align=center;verticalAlign=middle;points=[];fillColor=none;strokeColor=none;rounded=0;" vertex="1" parent="1">
          <mxGeometry x="1020" y="230" width="20" height="20" as="geometry" />
        </mxCell>
        <mxCell id="Hvgk8vvtis6JtDLWObex-367" value="" style="endArrow=none;html=1;rounded=0;exitX=0.867;exitY=0.933;exitDx=0;exitDy=0;exitPerimeter=0;entryX=0.033;entryY=0.3;entryDx=0;entryDy=0;entryPerimeter=0;" edge="1" parent="1" source="Hvgk8vvtis6JtDLWObex-357" target="Hvgk8vvtis6JtDLWObex-366">
          <mxGeometry width="50" height="50" relative="1" as="geometry">
            <mxPoint x="1070" y="270" as="sourcePoint" />
            <mxPoint x="1120" y="220" as="targetPoint" />
          </mxGeometry>
        </mxCell>
        <mxCell id="Hvgk8vvtis6JtDLWObex-368" value="4" style="text;html=1;resizable=0;autosize=1;align=center;verticalAlign=middle;points=[];fillColor=none;strokeColor=none;rounded=0;" vertex="1" parent="1">
          <mxGeometry x="1070" y="120" width="20" height="20" as="geometry" />
        </mxCell>
        <mxCell id="Hvgk8vvtis6JtDLWObex-369" value="" style="endArrow=none;html=1;rounded=0;exitX=1.033;exitY=0.633;exitDx=0;exitDy=0;exitPerimeter=0;entryX=0;entryY=0.6;entryDx=0;entryDy=0;entryPerimeter=0;dashed=1;" edge="1" parent="1" source="Hvgk8vvtis6JtDLWObex-359" target="Hvgk8vvtis6JtDLWObex-368">
          <mxGeometry width="50" height="50" relative="1" as="geometry">
            <mxPoint x="1070" y="270" as="sourcePoint" />
            <mxPoint x="1120" y="220" as="targetPoint" />
          </mxGeometry>
        </mxCell>
        <mxCell id="Hvgk8vvtis6JtDLWObex-370" value="3" style="text;html=1;resizable=0;autosize=1;align=center;verticalAlign=middle;points=[];fillColor=none;strokeColor=none;rounded=0;" vertex="1" parent="1">
          <mxGeometry x="1070" y="230" width="20" height="20" as="geometry" />
        </mxCell>
        <mxCell id="Hvgk8vvtis6JtDLWObex-371" value="" style="endArrow=none;html=1;rounded=0;exitX=0.733;exitY=1.033;exitDx=0;exitDy=0;exitPerimeter=0;entryX=0.333;entryY=0;entryDx=0;entryDy=0;entryPerimeter=0;dashed=1;" edge="1" parent="1" source="Hvgk8vvtis6JtDLWObex-359" target="Hvgk8vvtis6JtDLWObex-370">
          <mxGeometry width="50" height="50" relative="1" as="geometry">
            <mxPoint x="1090" y="270" as="sourcePoint" />
            <mxPoint x="1140" y="220" as="targetPoint" />
          </mxGeometry>
        </mxCell>
        <mxCell id="Hvgk8vvtis6JtDLWObex-372" value="4" style="text;html=1;resizable=0;autosize=1;align=center;verticalAlign=middle;points=[];fillColor=none;strokeColor=none;rounded=0;" vertex="1" parent="1">
          <mxGeometry x="1070" y="180" width="20" height="20" as="geometry" />
        </mxCell>
        <mxCell id="Hvgk8vvtis6JtDLWObex-373" value="" style="endArrow=none;html=1;rounded=0;" edge="1" parent="1">
          <mxGeometry width="50" height="50" relative="1" as="geometry">
            <mxPoint x="1040" y="190" as="sourcePoint" />
            <mxPoint x="1070" y="190" as="targetPoint" />
          </mxGeometry>
        </mxCell>
        <mxCell id="Hvgk8vvtis6JtDLWObex-374" value="3" style="text;html=1;resizable=0;autosize=1;align=center;verticalAlign=middle;points=[];fillColor=none;strokeColor=none;rounded=0;" vertex="1" parent="1">
          <mxGeometry x="1070" y="290" width="20" height="20" as="geometry" />
        </mxCell>
        <mxCell id="Hvgk8vvtis6JtDLWObex-375" value="" style="endArrow=none;html=1;rounded=0;exitX=0.633;exitY=0.9;exitDx=0;exitDy=0;exitPerimeter=0;entryX=0.267;entryY=-0.2;entryDx=0;entryDy=0;entryPerimeter=0;dashed=1;" edge="1" parent="1" source="Hvgk8vvtis6JtDLWObex-360" target="Hvgk8vvtis6JtDLWObex-374">
          <mxGeometry width="50" height="50" relative="1" as="geometry">
            <mxPoint x="1130" y="270" as="sourcePoint" />
            <mxPoint x="1180" y="220" as="targetPoint" />
          </mxGeometry>
        </mxCell>
        <mxCell id="Hvgk8vvtis6JtDLWObex-376" value="" style="endArrow=none;html=1;rounded=0;exitX=1.067;exitY=0.467;exitDx=0;exitDy=0;exitPerimeter=0;dashed=1;" edge="1" parent="1" source="Hvgk8vvtis6JtDLWObex-366">
          <mxGeometry width="50" height="50" relative="1" as="geometry">
            <mxPoint x="1130" y="270" as="sourcePoint" />
            <mxPoint x="1070" y="239" as="targetPoint" />
          </mxGeometry>
        </mxCell>
        <mxCell id="Hvgk8vvtis6JtDLWObex-377" value="" style="endArrow=none;html=1;rounded=0;exitX=0.9;exitY=0.3;exitDx=0;exitDy=0;exitPerimeter=0;entryX=0.567;entryY=0.867;entryDx=0;entryDy=0;entryPerimeter=0;dashed=1;" edge="1" parent="1" source="Hvgk8vvtis6JtDLWObex-366" target="Hvgk8vvtis6JtDLWObex-368">
          <mxGeometry width="50" height="50" relative="1" as="geometry">
            <mxPoint x="1100" y="270" as="sourcePoint" />
            <mxPoint x="1150" y="220" as="targetPoint" />
          </mxGeometry>
        </mxCell>
        <mxCell id="Hvgk8vvtis6JtDLWObex-378" value="" style="endArrow=none;html=1;rounded=0;exitX=1.067;exitY=0.6;exitDx=0;exitDy=0;exitPerimeter=0;entryX=-0.067;entryY=0.6;entryDx=0;entryDy=0;entryPerimeter=0;" edge="1" parent="1" source="Hvgk8vvtis6JtDLWObex-364" target="Hvgk8vvtis6JtDLWObex-374">
          <mxGeometry width="50" height="50" relative="1" as="geometry">
            <mxPoint x="1100" y="270" as="sourcePoint" />
            <mxPoint x="1150" y="220" as="targetPoint" />
          </mxGeometry>
        </mxCell>
        <mxCell id="Hvgk8vvtis6JtDLWObex-379" value="" style="endArrow=none;html=1;rounded=0;exitX=0.967;exitY=0.2;exitDx=0;exitDy=0;exitPerimeter=0;entryX=0.2;entryY=1.067;entryDx=0;entryDy=0;entryPerimeter=0;" edge="1" parent="1" source="Hvgk8vvtis6JtDLWObex-364" target="Hvgk8vvtis6JtDLWObex-372">
          <mxGeometry width="50" height="50" relative="1" as="geometry">
            <mxPoint x="1080" y="290" as="sourcePoint" />
            <mxPoint x="1130" y="240" as="targetPoint" />
            <Array as="points" />
          </mxGeometry>
        </mxCell>
        <mxCell id="Hvgk8vvtis6JtDLWObex-380" value="4" style="text;html=1;resizable=0;autosize=1;align=center;verticalAlign=middle;points=[];fillColor=none;strokeColor=none;rounded=0;" vertex="1" parent="1">
          <mxGeometry x="1120" y="120" width="20" height="20" as="geometry" />
        </mxCell>
        <mxCell id="Hvgk8vvtis6JtDLWObex-381" value="" style="endArrow=none;html=1;rounded=0;entryX=0.2;entryY=0.667;entryDx=0;entryDy=0;entryPerimeter=0;" edge="1" parent="1" source="Hvgk8vvtis6JtDLWObex-372" target="Hvgk8vvtis6JtDLWObex-380">
          <mxGeometry width="50" height="50" relative="1" as="geometry">
            <mxPoint x="1040" y="290" as="sourcePoint" />
            <mxPoint x="1090" y="240" as="targetPoint" />
          </mxGeometry>
        </mxCell>
        <mxCell id="Hvgk8vvtis6JtDLWObex-382" value="3" style="text;html=1;resizable=0;autosize=1;align=center;verticalAlign=middle;points=[];fillColor=none;strokeColor=none;rounded=0;" vertex="1" parent="1">
          <mxGeometry x="1120" y="180" width="20" height="20" as="geometry" />
        </mxCell>
        <mxCell id="Hvgk8vvtis6JtDLWObex-383" value="" style="endArrow=none;html=1;rounded=0;exitX=1.067;exitY=0.3;exitDx=0;exitDy=0;exitPerimeter=0;entryX=0.067;entryY=0.633;entryDx=0;entryDy=0;entryPerimeter=0;" edge="1" parent="1" source="Hvgk8vvtis6JtDLWObex-374" target="Hvgk8vvtis6JtDLWObex-382">
          <mxGeometry width="50" height="50" relative="1" as="geometry">
            <mxPoint x="1120" y="290" as="sourcePoint" />
            <mxPoint x="1170" y="240" as="targetPoint" />
          </mxGeometry>
        </mxCell>
        <mxCell id="Hvgk8vvtis6JtDLWObex-384" value="3" style="text;html=1;resizable=0;autosize=1;align=center;verticalAlign=middle;points=[];fillColor=none;strokeColor=none;rounded=0;" vertex="1" parent="1">
          <mxGeometry x="1180" y="120" width="20" height="20" as="geometry" />
        </mxCell>
        <mxCell id="Hvgk8vvtis6JtDLWObex-385" value="" style="endArrow=none;html=1;rounded=0;exitX=1.2;exitY=0.567;exitDx=0;exitDy=0;exitPerimeter=0;dashed=1;" edge="1" parent="1" source="Hvgk8vvtis6JtDLWObex-380">
          <mxGeometry width="50" height="50" relative="1" as="geometry">
            <mxPoint x="1120" y="290" as="sourcePoint" />
            <mxPoint x="1180" y="131" as="targetPoint" />
          </mxGeometry>
        </mxCell>
        <mxCell id="Hvgk8vvtis6JtDLWObex-386" value="4" style="text;html=1;resizable=0;autosize=1;align=center;verticalAlign=middle;points=[];fillColor=none;strokeColor=none;rounded=0;" vertex="1" parent="1">
          <mxGeometry x="1180" y="180" width="20" height="20" as="geometry" />
        </mxCell>
        <mxCell id="Hvgk8vvtis6JtDLWObex-387" value="" style="endArrow=none;html=1;rounded=0;exitX=1;exitY=0.6;exitDx=0;exitDy=0;exitPerimeter=0;entryX=-0.033;entryY=0.567;entryDx=0;entryDy=0;entryPerimeter=0;" edge="1" parent="1" source="Hvgk8vvtis6JtDLWObex-382" target="Hvgk8vvtis6JtDLWObex-386">
          <mxGeometry width="50" height="50" relative="1" as="geometry">
            <mxPoint x="1120" y="290" as="sourcePoint" />
            <mxPoint x="1170" y="240" as="targetPoint" />
          </mxGeometry>
        </mxCell>
        <mxCell id="Hvgk8vvtis6JtDLWObex-389" value="" style="endArrow=none;html=1;rounded=0;exitX=1.233;exitY=0.867;exitDx=0;exitDy=0;exitPerimeter=0;entryX=0.183;entryY=0.2;entryDx=0;entryDy=0;entryPerimeter=0;" edge="1" parent="1" source="Hvgk8vvtis6JtDLWObex-380" target="Hvgk8vvtis6JtDLWObex-386">
          <mxGeometry width="50" height="50" relative="1" as="geometry">
            <mxPoint x="1190" y="290" as="sourcePoint" />
            <mxPoint x="1240" y="240" as="targetPoint" />
          </mxGeometry>
        </mxCell>
        <mxCell id="Hvgk8vvtis6JtDLWObex-391" value="" style="endArrow=none;html=1;rounded=0;entryX=-0.05;entryY=1.1;entryDx=0;entryDy=0;entryPerimeter=0;exitX=0.867;exitY=0.733;exitDx=0;exitDy=0;exitPerimeter=0;dashed=1;" edge="1" parent="1" source="Hvgk8vvtis6JtDLWObex-382" target="Hvgk8vvtis6JtDLWObex-384">
          <mxGeometry width="50" height="50" relative="1" as="geometry">
            <mxPoint x="1050" y="290" as="sourcePoint" />
            <mxPoint x="1100" y="240" as="targetPoint" />
          </mxGeometry>
        </mxCell>
        <mxCell id="Hvgk8vvtis6JtDLWObex-392" value="3" style="text;html=1;resizable=0;autosize=1;align=center;verticalAlign=middle;points=[];fillColor=none;strokeColor=none;rounded=0;" vertex="1" parent="1">
          <mxGeometry x="1231" y="120" width="20" height="20" as="geometry" />
        </mxCell>
        <mxCell id="Hvgk8vvtis6JtDLWObex-394" value="4" style="text;html=1;resizable=0;autosize=1;align=center;verticalAlign=middle;points=[];fillColor=none;strokeColor=none;rounded=0;" vertex="1" parent="1">
          <mxGeometry x="1231" y="180" width="20" height="20" as="geometry" />
        </mxCell>
        <mxCell id="Hvgk8vvtis6JtDLWObex-404" value="4" style="text;html=1;resizable=0;autosize=1;align=center;verticalAlign=middle;points=[];fillColor=none;strokeColor=none;rounded=0;" vertex="1" parent="1">
          <mxGeometry x="1280" y="120" width="20" height="20" as="geometry" />
        </mxCell>
        <mxCell id="Hvgk8vvtis6JtDLWObex-405" value="" style="endArrow=none;html=1;rounded=0;exitX=0.933;exitY=0.5;exitDx=0;exitDy=0;exitPerimeter=0;dashed=1;" edge="1" parent="1" source="Hvgk8vvtis6JtDLWObex-392">
          <mxGeometry width="50" height="50" relative="1" as="geometry">
            <mxPoint x="1250" y="180" as="sourcePoint" />
            <mxPoint x="1280" y="130" as="targetPoint" />
          </mxGeometry>
        </mxCell>
        <mxCell id="Hvgk8vvtis6JtDLWObex-406" value="4" style="text;html=1;resizable=0;autosize=1;align=center;verticalAlign=middle;points=[];fillColor=none;strokeColor=none;rounded=0;" vertex="1" parent="1">
          <mxGeometry x="1280" y="180" width="20" height="20" as="geometry" />
        </mxCell>
        <mxCell id="Hvgk8vvtis6JtDLWObex-407" value="" style="endArrow=none;html=1;rounded=0;exitX=1.033;exitY=0.533;exitDx=0;exitDy=0;exitPerimeter=0;" edge="1" parent="1" source="Hvgk8vvtis6JtDLWObex-394">
          <mxGeometry width="50" height="50" relative="1" as="geometry">
            <mxPoint x="1290" y="290" as="sourcePoint" />
            <mxPoint x="1280" y="191" as="targetPoint" />
          </mxGeometry>
        </mxCell>
        <mxCell id="Hvgk8vvtis6JtDLWObex-408" value="" style="endArrow=none;html=1;rounded=0;exitX=1.05;exitY=0.567;exitDx=0;exitDy=0;exitPerimeter=0;dashed=1;" edge="1" parent="1" source="Hvgk8vvtis6JtDLWObex-384">
          <mxGeometry width="50" height="50" relative="1" as="geometry">
            <mxPoint x="1260" y="180" as="sourcePoint" />
            <mxPoint x="1230" y="130" as="targetPoint" />
          </mxGeometry>
        </mxCell>
        <mxCell id="Hvgk8vvtis6JtDLWObex-409" value="" style="endArrow=none;html=1;rounded=0;exitX=1.083;exitY=0.533;exitDx=0;exitDy=0;exitPerimeter=0;entryX=-0.1;entryY=0.567;entryDx=0;entryDy=0;entryPerimeter=0;" edge="1" parent="1" source="Hvgk8vvtis6JtDLWObex-386" target="Hvgk8vvtis6JtDLWObex-394">
          <mxGeometry width="50" height="50" relative="1" as="geometry">
            <mxPoint x="1240" y="180" as="sourcePoint" />
            <mxPoint x="1290" y="130" as="targetPoint" />
          </mxGeometry>
        </mxCell>
      </root>
    </mxGraphModel>
  </diagram>
</mxfile>
